<svg width="20" height="20" fill="none" xmlns="http://www.w3.org/2000/svg"><path fill-rule="evenodd" clip-rule="evenodd" d="M13 2c-.5523 0-1-.44772-1-1 0-.55229.4477-1 1-1h6c.5523 0 1 .44771 1 1v6c0 .55228-.4477 1-1 1s-1-.44772-1-1V3.41421L8.70711 12.7071c-.39053.3905-1.02369.3905-1.41422 0-.39052-.3905-.39052-1.0237 0-1.4142L16.5858 2H13ZM3 5a1.00003 1.00003 0 0 0-1 1v11a.99997.99997 0 0 0 1 1h11c.2652 0 .5196-.1054.7071-.2929A1.0001 1.0001 0 0 0 15 17v-6c0-.5523.4477-1 1-1s1 .4477 1 1v6a2.9999 2.9999 0 0 1-.8787 2.1213A2.9999 2.9999 0 0 1 14 20H3a3.00006 3.00006 0 0 1-3-3V6a3 3 0 0 1 3-3h6c.55229 0 1 .44772 1 1s-.44771 1-1 1H3Z" fill="#0CF8E9"/></svg>