<svg width="20" height="21" fill="none" xmlns="http://www.w3.org/2000/svg"><path fill-rule="evenodd" clip-rule="evenodd" d="m14.3366 2.65-1.5498 1.54975 3.5139 3.51391 1.5498-1.54975a2.35013 2.35013 0 0 0 .0312-.10603c.0456-.16828.0929-.41015.0968-.69425.0076-.55172-.1447-1.28089-.8527-1.98893-.7081-.70803-1.4372-.86034-1.989-.85273-.2841.00391-.5259.05117-.6942.09676a2.4007 2.4007 0 0 0-.106.03127Zm4.2267 3.97241c.7537.34329.7539.34289.7541.34249l.0012-.00269.0019-.00428.0048-.0109a3.17915 3.17915 0 0 0 .0132-.03101 2.88446 2.88446 0 0 0 .0381-.09759c.0297-.08023.067-.19096.104-.32743.0736-.27159.148-.6534.1542-1.10453.0127-.91875-.2609-2.10626-1.3377-3.18307S16.0328.85298 15.114.86565c-.4511.00622-.8329.08066-1.1045.15423-.1365.03697-.2472.07429-.3275.10398a2.835 2.835 0 0 0-.0976.03814 2.16418 2.16418 0 0 0-.031.01316l-.0109.0048-.0042.00191-.0019.00083-.0008.00039c-.0004.00018-.0008.00036.3425.75411l-.3433-.75375-.1364.06212L1.16385 13.4801l-.79862 6.6551 6.65514-.7986L19.2549 7.10209l.0621-.13639-.7537-.34329Zm-3.4339 2.26255-3.5139-3.51391-8.87524 8.87525-.47916 3.9931 3.99307-.4792 8.87523-8.87524Z" fill="#FCFCFC"/></svg>