<svg width="24" height="18" fill="none" xmlns="http://www.w3.org/2000/svg"><path fill-rule="evenodd" clip-rule="evenodd" d="M12 2C8.21 2 4.74 4.37 2.52 8.24a1.52 1.52 0 0 0 0 1.52C4.74 13.63 8.22 16 12 16c3.79 0 7.26-2.37 9.48-6.24.27-.47.27-1.05 0-1.52C19.26 4.37 15.78 2 12 2ZM.79 7.25C3.27 2.93 7.3 0 12 0c4.69 0 8.73 2.93 11.21 7.25a3.52 3.52 0 0 1 0 3.5C20.73 15.07 16.7 18 12 18 7.31 18 3.27 15.07.79 10.75a3.52 3.52 0 0 1 0-3.5ZM12 7a2 2 0 1 0 0 4 2 2 0 0 0 0-4ZM8 9a4 4 0 1 1 8 0 4 4 0 0 1-8 0Z" fill="#FCFCFC"/></svg>