<svg width="24" height="20" fill="none" xmlns="http://www.w3.org/2000/svg"><path fill-rule="evenodd" clip-rule="evenodd" d="M5.3.51a1 1 0 0 1 1.4 0l16 16a1 1 0 0 1-1.4 1.42l-1.34-1.34A11.91 11.91 0 0 1 12 19.78c-4.69 0-8.73-2.93-11.21-7.25a3.52 3.52 0 0 1 0-3.5 15.1 15.1 0 0 1 5.76-5.84L5.3 1.93A1 1 0 0 1 5.3.5Zm2.74 4.17a12.83 12.83 0 0 0-5.52 5.34 1.52 1.52 0 0 0 0 1.52c2.22 3.87 5.7 6.24 9.48 6.24 2.39 0 4.64-.94 6.54-2.6l-2.85-2.86v.01a4 4 0 1 1-5.24-5.24L8.04 4.68Zm4.1 4.1A2 2 0 1 0 14 10.63l-1.84-1.85Zm2.23-5.77a1 1 0 0 1 1.28-.62c3.12 1.08 5.75 3.48 7.56 6.63.48.83.59 1.8.34 2.7a1 1 0 1 1-1.93-.54c.11-.38.06-.8-.14-1.16-1.62-2.82-3.9-4.85-6.49-5.74a1 1 0 0 1-.62-1.27Z" fill="#FCFCFC"/></svg>