<svg id="SvgjsSvg1001" width="288" height="288" xmlns="http://www.w3.org/2000/svg" version="1.1" xmlns:xlink="http://www.w3.org/1999/xlink" xmlns:svgjs="http://svgjs.com/svgjs"><defs id="SvgjsDefs1002"></defs><g id="SvgjsG1008" transform="matrix(1,0,0,1,0,0)"><svg xmlns="http://www.w3.org/2000/svg" width="288" height="288" viewBox="0 0 512 512"><path d="m494.951 339.114-63.239-229.241h-.006a8 8 0 0 0 -7.706-5.873h-400a8 8 0 0 0 -8 8v200h16v-192h384v208h-392a8 8 0 0 0 -8 8v40a32.036 32.036 0 0 0 32 32h352a32.036 32.036 0 0 0 32-32v-204.917l47.527 172.287a13.137 13.137 0 0 1 -12.665 16.63h-18.862v16h18.862a29.138 29.138 0 0 0 28.089-36.886zm-78.951 36.886a16.019 16.019 0 0 1 -16 16h-352a16.019 16.019 0 0 1 -16-16v-32h384z" fill="#ffffff" class="color000 svgShape"></path><path d="M56 360h16v16h-16zM88 360h48v16h-48zM152 360h48v16h-48zM216 360h48v16h-48zM280 360h16v16h-16zM312 360h16v16h-16zM344 360h16v16h-16zM376 360h16v16h-16zM176 312a8 8 0 008-8v-144a8 8 0 00-8-8h-120a8 8 0 00-8 8v144a8 8 0 008 8zm-111.336-16a47.9 47.9 0 0135.589-38.547 8 8 0 003.11-13.954 19.944 19.944 0 01-7.363-15.499v-8a20 20 0 0140 0v8a19.944 19.944 0 01-7.363 15.5 8 8 0 003.11 13.954 47.9 47.9 0 0135.589 38.546zm-.664-128h104v93.634a63.758 63.758 0 00-20.829-15.6 35.9 35.9 0 004.829-18.034v-8a36 36 0 00-72 0v8a35.9 35.9 0 004.829 18.03 63.758 63.758 0 00-20.829 15.604zM208 192h80v16h-80zM208 224h48v16h-48zM208 256h80v16h-80zM208 288h80v16h-80zM328 192h48v16h-48zM328 224h48v16h-48zM328 256h48v16h-48zM328 288h48v16h-48zM208 160h168v16h-168z" fill="#ffffff" class="color000 svgShape"></path></svg></g></svg>