<svg width="23" height="23" viewBox="0 0 23 23" fill="none" xmlns="http://www.w3.org/2000/svg">
<g clip-path="url(#clip0_8169_11275)">
<path d="M18.2035 14.9246C18.1129 14.9244 18.0244 14.8974 17.9492 14.847C17.8739 14.7965 17.8153 14.7249 17.7806 14.6412C17.746 14.5575 17.7369 14.4653 17.7545 14.3764C17.7721 14.2875 17.8157 14.2059 17.8796 14.1417L20.5197 11.4993L17.8796 8.85693C17.8364 8.81453 17.802 8.76398 17.7784 8.70819C17.7548 8.65241 17.7425 8.5925 17.7422 8.53193C17.7419 8.47136 17.7536 8.41134 17.7766 8.35532C17.7996 8.2993 17.8335 8.2484 17.8763 8.20557C17.9191 8.16273 17.97 8.12881 18.026 8.10576C18.082 8.08272 18.142 8.071 18.2025 8.07129C18.263 8.07159 18.3229 8.08388 18.3787 8.10747C18.4344 8.13106 18.485 8.16547 18.5273 8.20872L21.4925 11.1747C21.5784 11.2608 21.6267 11.3776 21.6267 11.4993C21.6267 11.621 21.5784 11.7377 21.4925 11.8238L18.5273 14.7898C18.4849 14.8326 18.4345 14.8665 18.3789 14.8896C18.3233 14.9128 18.2637 14.9246 18.2035 14.9246Z" fill="#0CF8E9" stroke="#0CF8E9" stroke-width="0.5"/>
<path d="M20.7139 11.9585H10.2671C10.1466 11.9571 10.0314 11.9081 9.94671 11.8223C9.86197 11.7365 9.81445 11.6207 9.81445 11.5C9.81445 11.3794 9.86197 11.2636 9.94671 11.1778C10.0314 11.092 10.1466 11.043 10.2671 11.0415H20.7139C20.7746 11.0408 20.8348 11.0521 20.891 11.0748C20.9473 11.0975 20.9985 11.1312 21.0416 11.1738C21.0848 11.2165 21.119 11.2673 21.1424 11.3233C21.1658 11.3793 21.1778 11.4394 21.1778 11.5C21.1778 11.5607 21.1658 11.6208 21.1424 11.6768C21.119 11.7328 21.0848 11.7836 21.0416 11.8262C20.9985 11.8689 20.9473 11.9026 20.891 11.9253C20.8348 11.948 20.7746 11.9593 20.7139 11.9585Z" fill="#0CF8E9" stroke="#0CF8E9" stroke-width="0.5"/>
<path d="M7.23273 23.0002C7.09773 23 6.96397 22.9744 6.83847 22.9246L3.13886 21.4749C2.05828 21.0509 1.43848 20.1499 1.43848 19.0015V3.99912C1.43848 2.85075 2.05828 1.94974 3.13886 1.52575L6.83847 0.0760301C6.96411 0.0262704 7.09801 0.000642725 7.23314 0.000488281C8.21467 0.000488281 8.87359 1.31835 8.87359 2.54927V20.4514C8.8738 21.682 8.21405 23.0002 7.23273 23.0002ZM7.23334 0.917223C7.21262 0.917627 7.19218 0.922058 7.17315 0.930271L3.47354 2.3804C2.96362 2.58017 2.35562 3.02312 2.35562 3.99912V19.0012C2.35562 19.9768 2.96362 20.4202 3.47354 20.6204L7.17315 22.0701C7.19212 22.078 7.21239 22.0823 7.23293 22.0827C7.50563 22.0827 7.95672 21.3205 7.95672 20.4514V2.54893C7.95652 1.6802 7.50563 0.917223 7.23334 0.917223Z" fill="#0CF8E9" stroke="#0CF8E9" stroke-width="0.5"/>
<path d="M15.1878 20.7808H10.2678C10.1463 20.7808 10.0297 20.7325 9.94378 20.6466C9.85785 20.5606 9.80957 20.444 9.80957 20.3224C9.80957 20.2008 9.85785 20.0842 9.94378 19.9982C10.0297 19.9122 10.1463 19.8639 10.2678 19.8639H14.7293V13.2736C14.7308 13.1529 14.7797 13.0376 14.8655 12.9528C14.9514 12.868 15.0671 12.8204 15.1878 12.8204C15.3084 12.8204 15.4242 12.868 15.51 12.9528C15.5958 13.0376 15.6448 13.1529 15.6462 13.2736V20.3224C15.6462 20.3826 15.6344 20.4422 15.6113 20.4979C15.5883 20.5535 15.5545 20.6041 15.5119 20.6466C15.4694 20.6892 15.4188 20.723 15.3632 20.746C15.3076 20.769 15.248 20.7809 15.1878 20.7808ZM15.1878 10.2468C15.0662 10.2467 14.9497 10.1982 14.8638 10.1122C14.7779 10.0261 14.7296 9.9095 14.7296 9.78787V3.13477H10.2681C10.1465 3.13477 10.0299 3.08644 9.94386 3.00041C9.85788 2.91438 9.80957 2.7977 9.80957 2.67603C9.80957 2.55436 9.85788 2.43768 9.94386 2.35165C10.0299 2.26562 10.1465 2.21729 10.2681 2.21729H15.1878C15.248 2.21724 15.3077 2.22908 15.3634 2.25213C15.4191 2.27518 15.4697 2.30898 15.5123 2.35161C15.5549 2.39423 15.5886 2.44485 15.6117 2.50055C15.6347 2.55625 15.6466 2.61595 15.6465 2.67624V9.78787C15.6465 9.84815 15.6347 9.90783 15.6116 9.96352C15.5886 10.0192 15.5548 10.0698 15.5122 10.1124C15.4696 10.155 15.419 10.1888 15.3633 10.2119C15.3077 10.235 15.248 10.2468 15.1878 10.2468Z" fill="#0CF8E9" stroke="#0CF8E9" stroke-width="0.5"/>
<path d="M6.8794 12.9813C6.75779 12.9812 6.64119 12.9328 6.55522 12.8468C6.46925 12.7607 6.42093 12.644 6.4209 12.5223V10.4763C6.4209 10.3547 6.46921 10.238 6.55519 10.1519C6.64118 10.0659 6.7578 10.0176 6.8794 10.0176C7.001 10.0176 7.11763 10.0659 7.20361 10.1519C7.2896 10.238 7.33791 10.3547 7.33791 10.4763V12.5223C7.33789 12.644 7.28958 12.7607 7.20361 12.8468C7.11763 12.9328 7.00102 12.9812 6.8794 12.9813Z" fill="#0CF8E9" stroke="#0CF8E9" stroke-width="0.5"/>
</g>
<defs>
<clipPath id="clip0_8169_11275">
<rect width="20.1889" height="23" fill="white" transform="translate(1.4375)"/>
</clipPath>
</defs>
</svg>
