<svg width="569" height="427" fill="none" xmlns="http://www.w3.org/2000/svg"><path d="M454.69 222.24c-17.25 41.89-59.56 38.86-99.07 51.67-32.2 10.44-57.6 40.81-121.32 35.09-63.72-5.73-116-63.24-98.31-126.96 17.68-63.73 92.76-100.35 184.87-60.4 92.12 39.97 151.08 58.7 133.83 100.6Z" fill="url(#a)" fill-opacity=".1"/><path d="M393.74 92.84h-96.68c-7.1 0-12.87 5.76-12.87 12.87v157.42c0 7.1 5.76 12.87 12.87 12.87h96.68c7.1 0 12.87-5.76 12.87-12.87V105.7c0-7.1-5.76-12.87-12.87-12.87Z" fill="#B2C3FF"/><path d="M392.02 90.77h-96.69c-7.1 0-12.86 5.76-12.86 12.87v157.42c0 7.1 5.76 12.87 12.86 12.87h96.69c7.1 0 12.86-5.77 12.86-12.87V103.64c0-7.1-5.76-12.87-12.86-12.87Z" fill="url(#b)"/><path d="M363.33 244.52h-39.3a2.14 2.14 0 0 0 0 4.3h39.3a2.14 2.14 0 0 0 0-4.3ZM376.46 253.71h-65.58a2.14 2.14 0 0 0 0 4.29h65.58a2.14 2.14 0 0 0 0-4.29Z" fill="#D2D9F1"/><path d="M308.56 96.9H293.4a2.57 2.57 0 0 0-2.57 2.57v11.39a2.57 2.57 0 0 0 2.57 2.57h15.16a2.57 2.57 0 0 0 2.57-2.57v-11.4a2.57 2.57 0 0 0-2.57-2.57Z" fill="#ABB8E7"/><path d="M311.08 101.8h-8.26a.64.64 0 0 0-.65.64v4.84c0 .35.3.64.65.64h8.26c.36 0 .65-.29.65-.64v-4.84a.64.64 0 0 0-.65-.64Z" fill="#DBE1F4"/><path d="M238.63 374.57c33.19 0 60.1-3.51 60.1-7.85s-26.91-7.85-60.1-7.85c-33.2 0-60.1 3.51-60.1 7.85 0 4.33 26.9 7.85 60.1 7.85Z" fill="#0CF8E9"/><path d="M217 361.48v-11.5l.8-5.14 6.46.39-3.18 16.25H217ZM253.94 357.44l-1.65-15.79 7.22-.7-.35 15.99-5.22.5Z" fill="#FCD8E3"/><path d="M216.2 366.9c0-6.2.8-12.39.8-12.39 1.21.78 3.63.78 5.24 0 0 2.71.81 6.58 2.42 7.36 1.62.77 1.62.77 1.62 2.32 0 1.55-2.83 2.7-2.83 2.7h-7.25ZM269.23 362.55c-4.44 1.16-11.56 1.03-16.13.78l.26-11.66c3.37.77 5.79-.39 5.79 0 0 .38 1.2 7.01 6.05 8.17 3.87.93 4.16 2.2 4.03 2.71Z" fill="#6885EF"/><path d="M232.73 313.89c0 2.78-6.72 26.12-10.08 37.6-2.58.93-5.51.38-6.46 0l4.84-37.6c-.8-9.29 1.62-38.93 1.62-42.95 0-4.03 1.6-11.74 1.6-15.1h30.25c1.2 15.1 10.08 49.35 10.08 53.38 0 4.02-4.22 39.36-4.22 39.36s-6.45.64-8.07 0c0-1.94.46-24.63-1.42-34.7l-13.7-23.98c-.95 6.19-4.44 21.2-4.44 23.99Z" fill="#214B72"/><path d="M286.47 210.9c-1.29 2.78-1.34 6.83-1.2 8.5 1.07 1.04 3.22 2.87 3.22 1.94 0-1.16 3.63-1.94 4.84-5.03.96-2.48 5.64-8.51 2.42-10.83-1.21-1.94-7.67 1.93-9.28 5.41ZM210.1 275.5c-.15-3.06.9-6.3.01-7.76-1.44-.5-.82-1.4-3.22-.46-.46.18-3.18 4-2.82 7.3.28 2.65-.76 6.28 3.2 7.06 2 .05 3-2.32 2.82-6.14Z" fill="#FCD8E3"/><path d="M251.68 242.3c.64 1.55 12.1 18.96 17.74 27.48l2.28-1.35-18.41-28.83c-.8.25-2.26 1.16-1.61 2.7Z" fill="#4066EA"/><path d="M233.53 198.58c0 2.48-.94 8.39-2.01 9.29 1.07 1.55 3.95 4.64 6.85 4.64 3.63 0 7.26-3.48 5.65-4.64-1.3-.93-1.08-7.74-1.48-9.29-2.15-1.03-9-2.47-9 0Z" fill="#FCD8E3"/><path d="m243.15 201.17-3.97.83c-2.29.3-8.89-8.74-9.56-13.97-.67-5.23-.62-10.9 10.83-12.46 11.45-1.54 7.17 21.1 6.63 22.94-.43 1.48-2.8 2.4-3.93 2.66Z" fill="#FCD8E3"/><path d="M223.22 184.5c.56 4.93 7.4 11.64 9.26 13.77 2.13.92 5.2-.59 5.2-.59.8-1.39.8-6.9 1.06-8.68.46-3.17 2.95-7.36 5.82-9.65 5.58-4.48-.63-12.87-.92-15.43-2.55 2.62-3.98 4.34-11.6 5.2-8.8.98-9.5 9.24-8.81 15.39Z" fill="#2A2F6D"/><path d="m208.18 240.4-2.98 28.25h5.31c1.44-5.89 6.18-18.8 6.79-21.7.6-2.91 5.57-11.65 6.96-14.93 0 1.7 1.26 8.81 1.26 14.05 0 6.55-2.63 12.69-2.63 16.69 0 4 4.8 6.96 11.26 6.96 6.45 0 21.2-4.02 21.2-6.93V232.02c3.17 5.58 7.24 9.32 12.1 9.32 4.87 0 18.65-11.35 21.94-21.05l-4.18-1.45-17.75 10.86c-4.06-6.3-10.94-19.28-14.59-20.73-4.56-1.82-7.57-1.46-9.09-1.46-1.52 0-1.14 3.28-6.08 3.28s-4.94-3.28-6.08-3.28c-.9 0-6.1 1.46-9.52 3.28-3.42 1.81-13.92 29.61-13.92 29.61Z" fill="#B2C3FF"/><path d="m263.16 273.99-1.8 1.59c-4.05-3.17-14.35-17.69-22.38-34.33-5.43-11.25-9.6-23.48-12.3-32.4.13-.25.42-.3 1.63-.69 1.21-.39 1.86-.6 2-.47.8 3.9 2.1 13.53 11.69 32 7.65 14.73 18.34 30.66 21.16 34.3Z" fill="#6885EF"/><path d="m262.97 273.65-2.42.77 3.63 27.08 11.29-2.32-5.25-12.77 2.02-1.54-9.27-11.22Z" fill="#4066EA"/><path d="m262.97 273.65 8.87-5.42 8.87 9.29-1.1.96 4.73 8.71-8.87 12-5.25-12.77 2.02-1.55-9.27-11.22Z" fill="#6885EF"/><path d="M144.13 343.5c-27.33-7.53-31.3-16.58-45.87-16.58 6.4-6.9 46.49-20.47 65.46 4.84 18.98 25.3 15.5 33.87 15.5 33.87s-10.56-15.37-35.1-22.13Z" fill="url(#c)"/><path d="M135.53 315.27C86.8 282.89 93.57 225.6 93.57 225.6c10.66 42.7 70.11 42.46 85.25 78.54 15.14 36.08 0 61.81 0 61.81s5.43-18.3-43.3-50.68Z" fill="url(#d)"/><circle cx="345.5" cy="172.5" r="27.5" stroke="red" stroke-width="4"/><path d="m340.96 167.96 9.66 9.66M340.96 177.62l9.66-9.66" stroke="red" stroke-width="4" stroke-linecap="round" stroke-linejoin="round"/><defs><linearGradient id="a" x1="312.02" y1="114.54" x2="273.81" y2="317.01" gradientUnits="userSpaceOnUse"><stop stop-color="#FEC6D7"/><stop offset="1" stop-color="#6386FF"/></linearGradient><linearGradient id="b" x1="343.68" y1="90.77" x2="343.68" y2="273.93" gradientUnits="userSpaceOnUse"><stop stop-color="#D8E1FF"/><stop offset="1" stop-color="#F5F4FF"/></linearGradient><linearGradient id="c" x1="112.38" y1="359.62" x2="164.07" y2="333.22" gradientUnits="userSpaceOnUse"><stop offset=".07" stop-color="#A87EDE"/><stop offset="1" stop-color="#F53C69"/></linearGradient><radialGradient id="d" cx="0" cy="0" r="1" gradientUnits="userSpaceOnUse" gradientTransform="rotate(-49.71 422.36 54.48) scale(108.572 313.612)"><stop stop-color="#00E4FE"/><stop offset=".39" stop-color="#009FFD"/><stop offset="1" stop-color="#BE17FB"/></radialGradient></defs></svg>