<svg width="164" height="164" viewBox="0 0 164 164" fill="none" xmlns="http://www.w3.org/2000/svg">
<path d="M15.6704 124.766H148.33C151.074 124.766 153.304 122.535 153.304 119.792V34.5105C153.304 31.7673 151.074 29.5358 148.33 29.5358H15.6704C12.9272 29.5358 10.6957 31.7673 10.6957 34.5105V119.792C10.6957 122.535 12.9286 124.766 15.6704 124.766ZM14.9597 34.5105C14.9597 34.1182 15.2781 33.7998 15.6704 33.7998H148.33C148.722 33.7998 149.04 34.1182 149.04 34.5105V119.792C149.04 120.184 148.722 120.502 148.33 120.502H15.6704C15.2781 120.502 14.9597 120.184 14.9597 119.792V34.5105ZM164 128.573V132.554C164 133.609 163.144 134.464 162.09 134.464H1.9103C0.855655 134.464 0 133.609 0 132.554V128.573H67.3537C67.6863 129.683 68.7039 130.497 69.9221 130.497H94.0794C95.2961 130.497 96.3137 129.684 96.6478 128.573H164Z" fill="white"/>
<rect x="62" y="54" width="40" height="40" rx="20" fill="url(#paint0_radial)"/>
<path d="M71.3334 74.4183L78.8758 81.9608L93.9608 66.8759" stroke="white" stroke-width="4" stroke-linecap="round"/>
<defs>
<radialGradient id="paint0_radial" cx="0" cy="0" r="1" gradientUnits="userSpaceOnUse" gradientTransform="translate(68.2468 87) rotate(-37.797) scale(38.5076 109.202)">
<stop stop-color="#00E4FE"/>
<stop offset="0.391172" stop-color="#009FFD"/>
<stop offset="1" stop-color="#BE17FB"/>
</radialGradient>
</defs>
</svg>
