<svg width="28" height="32" fill="none" xmlns="http://www.w3.org/2000/svg"><path d="M18.937 0H6.08451C4.20688 0 2.6787 1.52925 2.6787 3.40582V15.9999h-.33265c-.75782 0-1.37242.614-1.37242 1.3725v8.3232c0 .7584.61453 1.3723 1.37242 1.3723h.33265v1.5262c0 1.8786 1.52818 3.4058 3.40581 3.4058H23.6212c1.8764 0 3.4048-1.5272 3.4048-3.4058V8.06066L18.937 0ZM4.57405 18.8745c.4022-.068.96755-.1193 1.76407-.1193.80494 0 1.37865.1537 1.76413.4623.36823.2909.61672.7709.61672 1.3359 0 .5648-.18829 1.045-.5309 1.3703-.44561.4194-1.10461.6077-1.87551.6077-.17156 0-.32535-.0085-.44561-.0251v2.0638h-1.2929v-5.6956ZM23.6212 29.9142H6.08451c-.72702 0-1.31905-.5921-1.31905-1.3201v-1.5262H21.1132c.758 0 1.3725-.6139 1.3725-1.3723v-8.3232c0-.7585-.6145-1.3725-1.3725-1.3725H4.76546V3.40582c0-.72597.59209-1.31799 1.31905-1.31799l12.07219-.01262v4.46231c0 1.30339 1.0575 2.36194 2.3619 2.36194l4.3713-.01255.0492 19.70719c0 .728-.5909 1.3201-1.3179 1.3201ZM9.55265 24.544v-5.6695c.47955-.0764 1.10455-.1193 1.76415-.1193 1.0962 0 1.807.1967 2.364.6161.5994.4456.9759 1.1559.9759 2.1757 0 1.1046-.4022 1.8672-.9593 2.3378-.6077.5053-1.5329.7449-2.6631.7449-.6768 0-1.15636-.0429-1.48165-.0857Zm9.34675-3.3567v1.0616h-2.0727v2.3212h-1.3102v-5.772h3.5283v1.0701h-2.2181v1.3191h2.0727Z" fill="#fff"/></svg>