<svg width="99" height="173" viewBox="0 0 99 173" fill="none" xmlns="http://www.w3.org/2000/svg">
<path d="M63.4335 8.65002H34.6003C33.0088 8.65002 31.717 9.94178 31.717 11.5332C31.717 13.1247 33.0088 14.4165 34.6003 14.4165H63.4335C65.0249 14.4165 66.3167 13.1247 66.3167 11.5332C66.3167 9.94178 65.0249 8.65002 63.4335 8.65002Z" fill="white"/>
<path d="M83.617 8.65002H80.7338C79.1423 8.65002 77.8506 9.94178 77.8506 11.5332C77.8506 13.1247 79.1423 14.4165 80.7338 14.4165H83.617C85.2085 14.4165 86.5002 13.1247 86.5002 11.5332C86.5002 9.94178 85.2085 8.65002 83.617 8.65002Z" fill="white"/>
<path d="M52.5978 147.05H45.4386C41.0531 147.05 37.4836 150.62 37.4836 155.005V156.398C37.4836 160.783 41.0531 164.35 45.4359 164.35H52.5951C56.9806 164.35 60.5501 160.783 60.5501 156.398V155.005C60.5501 150.62 56.9806 147.05 52.5978 147.05ZM54.7836 156.398C54.7836 157.603 53.8034 158.583 52.5982 158.583H45.4386C44.2306 158.583 43.2501 157.603 43.2501 156.398V155.005C43.2501 153.797 44.2303 152.816 45.4386 152.816H52.5951C53.8034 152.816 54.7836 153.797 54.7836 155.005V156.398Z" fill="white"/>
<path d="M87.613 0H10.4233C4.67675 0 0 4.67674 0 10.4233V162.577C0 168.323 4.67675 173 10.4233 173H87.61C93.3565 173 98.0332 168.323 98.0332 162.58V10.4233C98.0336 4.67674 93.3568 0 87.613 0ZM92.2668 162.577C92.2668 165.143 90.1793 167.233 87.613 167.233H10.4233C7.85427 167.233 5.76678 165.143 5.76678 162.579V10.4233C5.76678 7.85697 7.85427 5.76678 10.4233 5.76678H87.61C90.1789 5.76678 92.2664 7.85731 92.2664 10.4233V162.577H92.2668Z" fill="white"/>
<path d="M95.1499 17.3H2.88347C1.292 17.3 0.000244141 18.5918 0.000244141 20.1833V141.283C0.000244141 142.875 1.292 144.167 2.88347 144.167H95.1502C96.7417 144.167 98.0335 142.875 98.0335 141.283V20.1833C98.0335 18.5918 96.7417 17.3 95.1499 17.3ZM92.2667 138.4H5.76669V23.0668H92.2667V138.4Z" fill="white"/>
<rect x="28.3762" y="60.7333" width="40" height="40" rx="20" fill="#00B9B9"/>
<path d="M37.7095 81.1516L45.2519 88.6941L60.3369 73.6091" stroke="white" stroke-width="4" stroke-linecap="round"/>
</svg>
