<svg width="141" height="39" viewBox="0 0 141 39" fill="none" xmlns="http://www.w3.org/2000/svg">
<path d="M50.8329 7.35403V13.708C45.6992 13.708 41.5376 17.8695 41.5376 23.0033C41.5376 28.137 45.6992 32.2985 50.8329 32.2985C55.9668 32.2985 60.1283 28.137 60.1283 23.0033C60.1283 22.8085 60.1203 22.6165 60.1084 22.4246H65.9035L66.1983 22.7194C66.1983 31.206 59.3184 38.0848 50.8329 38.0848C42.3465 38.0848 35.4676 31.206 35.4676 22.7194C35.4676 14.2329 42.3465 7.35403 50.8329 7.35403ZM114.233 11.007V16.9284H112.751C109.326 16.9284 106.387 19.5024 105.825 23.0119C105.761 23.4099 105.729 23.814 105.729 24.2188V36.7073H99.9603V24.2188C99.9603 23.6721 99.9928 23.1271 100.058 22.5862C100.846 15.9841 106.295 11.007 112.751 11.007H114.233ZM5.88307 11.0069V36.7072H0.115126V11.0069H5.88307ZM16.7372 11.0069L16.7371 12.2529L16.8064 12.2161C17.7889 11.7007 18.8495 11.3407 19.9565 11.1542L20.0896 11.1326C20.6263 11.0488 21.1713 11.0069 21.7186 11.0069C22.266 11.0069 22.8111 11.0488 23.3474 11.1326C28.2843 11.9004 32.0258 16.0448 32.3877 21.0013L32.3946 21.109L32.4174 21.1091V36.6973H26.6483V21.7903C26.6483 20.4464 26.105 19.1987 25.2116 18.2884L25.118 18.1955C24.4853 17.5839 23.6894 17.1368 22.7936 16.9332C22.4419 16.8531 22.0813 16.8127 21.7186 16.8127C21.3561 16.8127 20.9954 16.8531 20.6432 16.9333C18.4045 17.4413 16.789 19.4729 16.789 21.7903V36.0129H16.7371L16.7372 36.6983H10.6605V11.0069H16.7372ZM82.0886 11.1166C82.618 11.1166 83.1471 11.1492 83.6721 11.2143C85.5805 11.45 87.3822 12.1083 88.97 13.1252L89.0831 13.1984L89.1099 13.2162L89.1101 11.505H95.5653V36.6973H89.1101L89.1099 34.6007L89.0837 34.6183C87.5438 35.6264 85.7966 36.2943 83.942 36.5633L83.8027 36.5827L83.6726 36.5995C83.1475 36.6646 82.6183 36.6973 82.0886 36.6973C81.5588 36.6973 81.0298 36.6647 80.505 36.5995C74.1103 35.8097 69.2983 30.3575 69.2983 23.907C69.2983 17.4569 74.1108 12.0044 80.5047 11.2144C81.0302 11.1492 81.5592 11.1166 82.0886 11.1166ZM140.986 0V23.8338C140.986 30.2839 136.173 35.7364 129.78 36.5264C129.254 36.5916 128.725 36.6242 128.196 36.6242C127.666 36.6242 127.137 36.5916 126.612 36.5265C120.217 35.7364 115.405 30.2842 115.405 23.8338C115.405 17.3837 120.218 11.9313 126.612 11.1413C127.137 11.0761 127.666 11.0434 128.196 11.0434C128.725 11.0434 129.254 11.0761 129.779 11.1412C131.689 11.3772 133.492 12.0344 135.079 13.0496L135.192 13.1227L135.217 13.1396V0H140.986ZM82.0886 16.8855C81.6994 16.8855 81.3123 16.9173 80.9291 16.9809C77.5521 17.5407 75.0672 20.4773 75.0672 23.907C75.0672 27.269 77.4563 30.1617 80.7322 30.7979L80.8317 30.8165L80.9291 30.833C81.3125 30.8965 81.6996 30.9284 82.0886 30.9284C82.4777 30.9284 82.8648 30.8965 83.2482 30.833C86.6255 30.2731 89.1101 27.3372 89.1101 23.907C89.1101 20.5432 86.7183 17.6495 83.4386 17.0149L83.339 16.9964L83.2481 16.9809C82.8653 16.9174 82.4772 16.8855 82.0886 16.8855ZM128.195 16.8114C127.805 16.8114 127.418 16.8432 127.035 16.9068C123.658 17.4666 121.173 20.4032 121.173 23.8327C121.173 27.1947 123.562 30.0875 126.839 30.7239L126.939 30.7425L127.035 30.7589C127.419 30.8225 127.806 30.8543 128.195 30.8543C128.584 30.8543 128.971 30.8225 129.354 30.7589C132.733 30.199 135.217 27.2631 135.216 23.8327C135.216 20.469 132.824 17.5754 129.544 16.9408L129.445 16.9222L129.354 16.9068C128.971 16.8433 128.583 16.8114 128.195 16.8114ZM53.1141 1.08184L70.8864 10.9688L53.1141 20.8557V1.08184ZM3.02532 3.07668C4.69615 3.07668 6.05064 4.43115 6.05064 6.10198C6.05064 7.77282 4.69616 9.1273 3.02532 9.1273C1.35448 9.1273 0 7.77282 0 6.10198C0 4.43115 1.35448 3.07668 3.02532 3.07668Z" fill="white"/>
</svg>
