<svg width="20" height="20" fill="none" xmlns="http://www.w3.org/2000/svg"><path fill-rule="evenodd" clip-rule="evenodd" d="M8.18093 1.81818a.90907.90907 0 0 0-.90909.90909v.90909h5.45456v-.90909a.90908.90908 0 0 0-.2663-.64282.90906.90906 0 0 0-.6428-.26627H8.18093Zm6.36367 1.81818v-.90909A2.72752 2.72752 0 0 0 13.7458.7988 2.72743 2.72743 0 0 0 11.8173 0H8.18093a2.72726 2.72726 0 0 0-2.72727 2.72727v.90909H1.81729c-.50207 0-.90909.40702-.90909.90909 0 .50208.40702.9091.90909.9091h.9091V17.2727c0 .7233.28733 1.417.79879 1.9285A2.72714 2.72714 0 0 0 5.45366 20h9.09094c.7233 0 1.417-.2873 1.9284-.7988a2.72727 2.72727 0 0 0 .7988-1.9285V5.45455h.9091c.5021 0 .9091-.40702.9091-.9091 0-.50207-.407-.90909-.9091-.90909h-3.6363ZM4.54457 5.45455V17.2727c0 .2411.09578.4724.26626.6429a.9094.9094 0 0 0 .64283.2662h9.09094c.2411 0 .4723-.0958.6428-.2662a.90928.90928 0 0 0 .2663-.6429V5.45455H4.54457Zm3.63636 2.72727c.50208 0 .90909.40701.90909.90909v5.45459c0 .502-.40701.909-.90909.909s-.90909-.407-.90909-.909V9.09091c0-.50208.40701-.90909.90909-.90909Zm2.72727.90909c0-.50208.407-.90909.9091-.90909s.9091.40701.9091.90909v5.45459c0 .502-.407.909-.9091.909s-.9091-.407-.9091-.909V9.09091Z" fill="#fff"/></svg>