<?xml version="1.0" encoding="UTF-8" standalone="no"?>
<svg
   width="387.14999"
   height="337.15179"
   fill="none"
   version="1.1"
   id="svg1477"
   sodipodi:docname="verify-wait.svg"
   inkscape:version="1.1 (c4e8f9e, 2021-05-24)"
   xmlns:inkscape="http://www.inkscape.org/namespaces/inkscape"
   xmlns:sodipodi="http://sodipodi.sourceforge.net/DTD/sodipodi-0.dtd"
   xmlns="http://www.w3.org/2000/svg"
   xmlns:svg="http://www.w3.org/2000/svg">
  <sodipodi:namedview
     id="namedview1479"
     pagecolor="#ffffff"
     bordercolor="#666666"
     borderopacity="1.0"
     inkscape:pageshadow="2"
     inkscape:pageopacity="0.0"
     inkscape:pagecheckerboard="0"
     showgrid="false"
     fit-margin-top="0"
     fit-margin-left="0"
     fit-margin-right="0"
     fit-margin-bottom="0"
     inkscape:zoom="1.4214418"
     inkscape:cx="159.34525"
     inkscape:cy="164.97334"
     inkscape:window-width="1488"
     inkscape:window-height="995"
     inkscape:window-x="0"
     inkscape:window-y="25"
     inkscape:window-maximized="0"
     inkscape:current-layer="svg1477" />
  <g
     opacity="0.46"
     id="g820"
     transform="translate(-201.78,-105.57)">
    <path
       opacity="0.46"
       d="m 206.22,268.85 a 4.21,4.21 0 0 1 -4.21,-4.2 v -24.1 c 0,-1.49 0.8,-2.88 2.1,-3.63 l 77.88,-44.8 a 4.21,4.21 0 0 1 6.3,3.64 v 24.08 c 0,1.5 -0.8,2.9 -2.1,3.64 l -77.88,44.8 c -0.66,0.38 -1.36,0.57 -2.1,0.57 z"
       fill="url(#a)"
       id="path816"
       style="fill:url(#a)" />
    <path
       opacity="0.46"
       d="m 284.08,191.78 c 2.2,0 3.99,1.78 3.99,3.98 v 24.08 c 0,1.42 -0.76,2.74 -2,3.44 l -77.87,44.8 a 3.99,3.99 0 0 1 -5.96,-3.44 v -24.08 c 0,-1.42 0.76,-2.74 1.99,-3.44 l 77.88,-44.8 a 3.93,3.93 0 0 1 1.97,-0.54 z m 0,-0.45 a 4.4,4.4 0 0 0 -2.2,0.6 L 204,236.72 a 4.42,4.42 0 0 0 -2.22,3.83 v 24.08 a 4.43,4.43 0 0 0 6.64,3.84 l 77.88,-44.8 a 4.42,4.42 0 0 0 2.22,-3.84 v -24.08 a 4.43,4.43 0 0 0 -4.44,-4.43 z"
       fill="#ffffff"
       id="path818" />
  </g>
  <g
     opacity="0.46"
     id="g826"
     transform="translate(-201.78,-105.57)">
    <path
       opacity="0.46"
       d="m 302.47,231.69 a 4.21,4.21 0 0 1 -4.2,-4.2 v -24.1 c 0,-1.49 0.8,-2.88 2.1,-3.63 l 77.88,-44.8 a 4.21,4.21 0 0 1 6.3,3.64 v 24.08 c 0,1.5 -0.81,2.9 -2.1,3.64 l -77.89,44.8 c -0.65,0.38 -1.36,0.57 -2.09,0.57 z"
       fill="url(#b)"
       id="path822"
       style="fill:url(#b)" />
    <path
       opacity="0.46"
       d="m 380.34,154.62 c 2.2,0 3.98,1.78 3.98,3.98 v 24.08 c 0,1.42 -0.76,2.74 -2,3.44 l -77.87,44.8 a 3.99,3.99 0 0 1 -5.96,-3.44 V 203.4 c 0,-1.42 0.76,-2.74 1.99,-3.44 l 77.88,-44.8 a 3.92,3.92 0 0 1 1.98,-0.54 z m 0,-0.45 a 4.4,4.4 0 0 0 -2.2,0.6 l -77.88,44.8 a 4.42,4.42 0 0 0 -2.22,3.83 v 24.09 a 4.43,4.43 0 0 0 6.63,3.83 l 77.88,-44.8 a 4.42,4.42 0 0 0 2.22,-3.84 V 158.6 a 4.43,4.43 0 0 0 -4.43,-4.43 z"
       fill="#ffffff"
       id="path824" />
  </g>
  <g
     opacity="0.46"
     id="g832"
     transform="translate(-201.78,-105.57)">
    <path
       opacity="0.46"
       d="m 309.75,183.1 a 4.21,4.21 0 0 1 -4.2,-4.2 v -24.08 c 0,-1.5 0.8,-2.9 2.1,-3.64 l 77.88,-44.8 a 4.21,4.21 0 0 1 6.3,3.64 v 24.08 c 0,1.5 -0.81,2.89 -2.1,3.63 l -77.89,44.8 c -0.65,0.38 -1.35,0.57 -2.09,0.57 z"
       fill="url(#c)"
       id="path828"
       style="fill:url(#c)" />
    <path
       opacity="0.46"
       d="m 387.62,106.03 c 2.2,0 3.98,1.79 3.98,3.98 v 24.09 c 0,1.41 -0.76,2.73 -2,3.44 l -77.87,44.8 a 3.99,3.99 0 0 1 -5.96,-3.44 v -24.08 c 0,-1.42 0.76,-2.74 2,-3.45 l 77.87,-44.8 a 3.94,3.94 0 0 1 1.98,-0.54 z m 0,-0.45 c -0.74,0 -1.5,0.19 -2.2,0.6 l -77.88,44.8 a 4.42,4.42 0 0 0 -2.22,3.84 v 24.08 a 4.43,4.43 0 0 0 6.63,3.83 l 77.88,-44.8 a 4.42,4.42 0 0 0 2.22,-3.83 V 110 a 4.43,4.43 0 0 0 -4.43,-4.43 z"
       fill="#ffffff"
       id="path830" />
  </g>
  <g
     opacity="0.18"
     id="g838"
     transform="translate(-201.78,-105.57)">
    <path
       opacity="0.18"
       d="m 389.02,442.5 c -3.17,0 -6.28,-0.84 -9.02,-2.43 l -37,-21.4 a 4.33,4.33 0 0 1 -2.18,-3.8 c 0,-1.57 0.82,-2.99 2.19,-3.77 l 139.75,-80.62 a 24.8,24.8 0 0 1 24.75,0 l 32.02,18.44 a 5.44,5.44 0 0 1 2.76,4.76 5.44,5.44 0 0 1 -2.75,4.77 L 398,440.09 a 18.02,18.02 0 0 1 -9,2.4 z"
       fill="url(#d)"
       id="path834"
       style="fill:url(#d)" />
    <path
       opacity="0.18"
       d="m 495.14,327.39 c 4.3,0 8.54,1.13 12.26,3.28 l 32.02,18.45 a 5.22,5.22 0 0 1 2.64,4.56 c 0,1.91 -0.98,3.62 -2.64,4.57 L 397.9,439.9 a 17.8,17.8 0 0 1 -17.79,-0.01 l -37,-21.41 a 4.1,4.1 0 0 1 -2.06,-3.6 c 0,-1.49 0.77,-2.83 2.07,-3.58 l 139.75,-80.62 a 24.58,24.58 0 0 1 12.27,-3.28 z m 0,-0.45 c -4.31,0 -8.63,1.11 -12.5,3.34 L 342.9,410.9 a 4.6,4.6 0 0 0 0,7.96 l 36.99,21.41 a 18.22,18.22 0 0 0 18.24,0.01 l 141.52,-81.64 a 5.72,5.72 0 0 0 0,-9.91 l -32.03,-18.45 a 25,25 0 0 0 -12.48,-3.34 z"
       fill="#ffffff"
       id="path836" />
  </g>
  <g
     opacity="0.18"
     id="g844"
     transform="translate(-201.78,-105.57)">
    <path
       opacity="0.18"
       d="m 273.07,402.86 c -3.16,0 -6.28,-0.84 -9.02,-2.43 l -37,-21.4 a 4.33,4.33 0 0 1 -2.18,-3.8 c 0,-1.57 0.82,-2.98 2.2,-3.77 l 139.74,-80.62 a 24.8,24.8 0 0 1 24.75,0 l 32.02,18.44 a 5.44,5.44 0 0 1 2.76,4.77 5.44,5.44 0 0 1 -2.75,4.76 l -141.52,81.64 a 18.03,18.03 0 0 1 -9,2.4 z"
       fill="url(#e)"
       id="path840"
       style="fill:url(#e)" />
    <path
       opacity="0.18"
       d="m 379.2,287.75 c 4.3,0 8.53,1.13 12.25,3.28 l 32.02,18.45 a 5.22,5.22 0 0 1 2.64,4.56 c 0,1.91 -0.98,3.62 -2.64,4.57 l -141.52,81.64 a 17.8,17.8 0 0 1 -17.78,-0.01 l -37,-21.41 a 4.1,4.1 0 0 1 -2.07,-3.6 c 0,-1.49 0.78,-2.83 2.08,-3.58 l 139.75,-80.62 a 24.58,24.58 0 0 1 12.26,-3.28 z m 0,-0.45 c -4.32,0 -8.63,1.11 -12.5,3.34 l -139.75,80.62 a 4.6,4.6 0 0 0 0,7.96 l 36.99,21.4 a 18.22,18.22 0 0 0 18.24,0.02 L 423.7,319 a 5.72,5.72 0 0 0 0,-9.91 l -32.02,-18.45 a 24.99,24.99 0 0 0 -12.49,-3.34 z"
       fill="#ffffff"
       id="path842" />
  </g>
  <path
     d="m 218.19,4.51 6.84,-3.87 a 4.2,4.2 0 0 1 4.18,0.01 l 139.33,80.37 v 107.9 l -7.6,4.23 c 0,0 -37.92,-108.52 -52.04,-117.86 C 294.78,65.95 218.19,4.51 218.19,4.51 Z"
     fill="url(#f)"
     id="path846"
     style="fill:url(#f)" />
  <path
     d="m 215.17,8.78 v 95.46 c 0,4.03 2.15,7.76 5.63,9.8 l 135.95,79.38 a 4.14,4.14 0 0 0 6.22,-3.57 V 92.77 c 0,-4.06 -2.17,-7.8 -5.68,-9.84 L 221.95,4.86 a 4.52,4.52 0 0 0 -6.78,3.92 z"
     fill="url(#g)"
     id="path848"
     style="fill:url(#g)" />
  <path
     d="m 358.82,193.76 c -0.68,0 -1.35,-0.18 -1.96,-0.54 L 220.92,113.84 a 11.16,11.16 0 0 1 -5.52,-9.6 V 8.77 a 4.3,4.3 0 0 1 6.44,-3.71 l 135.33,78.07 a 11.16,11.16 0 0 1 5.57,9.64 v 97.08 c 0,1.07 -0.42,2.07 -1.19,2.8 -0.73,0.7 -1.72,1.11 -2.72,1.11 z"
     fill="url(#h)"
     fill-opacity="0.75"
     id="path850"
     style="fill:url(#h)" />
  <path
     d="m 219.7,4.7 c 0.71,0 1.4,0.19 2.03,0.55 l 135.33,78.07 a 10.93,10.93 0 0 1 5.46,9.45 v 97.08 a 3.7,3.7 0 0 1 -5.55,3.18 L 221.03,113.65 a 10.94,10.94 0 0 1 -5.4,-9.41 V 8.77 A 4.08,4.08 0 0 1 219.7,4.7 Z m 0,-0.45 a 4.52,4.52 0 0 0 -4.53,4.53 v 95.46 c 0,4.03 2.15,7.76 5.63,9.8 l 135.95,79.38 a 4.14,4.14 0 0 0 6.23,-3.57 V 92.77 c 0,-4.06 -2.18,-7.8 -5.7,-9.84 L 221.95,4.86 a 4.49,4.49 0 0 0 -2.25,-0.6 z"
     fill="#ffffff"
     id="path852" />
  <path
     d="m 224.77,19.63 v 29.13 a 9.84,9.84 0 0 0 4.92,8.52 l 19.73,11.38 a 3.27,3.27 0 0 0 4.9,-2.83 V 34.47 a 9.72,9.72 0 0 0 -4.86,-8.41 L 231.54,15.72 a 4.52,4.52 0 0 0 -6.77,3.9 z"
     fill="url(#i)"
     id="path854"
     style="fill:url(#i)" />
  <path
     d="m 244.47,70.58 c -0.5,0 -0.96,-0.13 -1.4,-0.38 L 223.34,58.82 a 9.41,9.41 0 0 1 -4.7,-8.13 V 21.56 a 4.08,4.08 0 0 1 6.1,-3.52 l 17.92,10.34 a 9.3,9.3 0 0 1 4.64,8.02 v 31.36 c 0,0.78 -0.3,1.5 -0.86,2.03 -0.53,0.5 -1.25,0.8 -1.97,0.8 z"
     fill="#bd8aae"
     id="path856" />
  <path
     d="m 222.72,17.94 c 0.62,0 1.23,0.17 1.8,0.5 l 17.91,10.33 a 8.84,8.84 0 0 1 4.42,7.64 v 31.35 a 2.38,2.38 0 0 1 -3.56,2.05 L 223.56,58.43 a 8.96,8.96 0 0 1 -4.47,-7.74 V 21.56 a 3.63,3.63 0 0 1 3.62,-3.62 z m 0,-0.9 a 4.52,4.52 0 0 0 -4.53,4.52 v 29.13 a 9.84,9.84 0 0 0 4.92,8.52 l 19.73,11.38 a 3.27,3.27 0 0 0 4.9,-2.83 V 36.4 a 9.72,9.72 0 0 0 -4.86,-8.41 L 224.96,17.65 a 4.5,4.5 0 0 0 -2.25,-0.61 z m 36.8,21.45 v 3.94 c 0,0.7 0.37,1.36 0.98,1.72 l 92.1,53.13 a 1.98,1.98 0 0 0 2.98,-1.72 v -3.95 c 0,-0.7 -0.38,-1.36 -0.99,-1.72 l -92.1,-53.13 a 1.98,1.98 0 0 0 -2.98,1.72 z m 3.24,15.49 54.79,31.6 c 0.67,0.4 1.08,1.1 1.08,1.88 v 3.53 c 0,1.67 -1.8,2.7 -3.24,1.88 l -54.8,-31.61 a 2.16,2.16 0 0 1 -1.08,-1.87 v -3.54 c 0,-1.66 1.8,-2.7 3.25,-1.87 z"
     fill="#ffffff"
     id="path858" />
  <path
     d="m 258.16,82.77 v 35.66 c 0,1.08 0.57,2.07 1.5,2.61 l 82.65,47.68 a 3.02,3.02 0 0 0 4.53,-2.61 v -35.56 c 0,-1.07 -0.58,-2.07 -1.5,-2.6 l -82.66,-47.8 a 3.02,3.02 0 0 0 -4.52,2.62 z"
     fill="url(#j)"
     id="path860"
     style="fill:url(#j)" />
  <path
     d="m 247.75,84.77 v 35.67 c 0,1.08 0.57,2.07 1.5,2.61 l 82.65,47.68 a 3.02,3.02 0 0 0 4.53,-2.61 v -35.56 c 0,-1.07 -0.58,-2.07 -1.5,-2.6 l -82.66,-47.8 a 3.02,3.02 0 0 0 -4.52,2.62 z"
     fill="#ffffff"
     id="path862" />
  <path
     d="m 273.55,98.43 c -6.27,-3.62 -12.2,-2.7 -14.64,3 -3.07,7.12 0.42,19.1 7.8,27.4 l 1.7,-3.99 c -5,-5.82 -7.32,-14.05 -5.2,-18.98 1.73,-4 5.9,-4.66 10.32,-2.11 a 17.9,17.9 0 0 1 3.24,2.43 l 1.71,-3.98 a 25.9,25.9 0 0 0 -4.93,-3.77 z"
     fill="#3c7fbe"
     id="path864" />
  <path
     d="m 278.48,102.2 -1.71,3.98 c 0.27,0.25 0.54,0.51 0.8,0.79 5.69,5.84 8.46,14.83 6.2,20.07 -0.08,0.18 -0.16,0.37 -0.26,0.54 l -0.1,0.19 c -1.65,2.89 -4.8,3.6 -8.28,2.2 a 12.82,12.82 0 0 1 -2.8,-1.53 l -0.09,-0.07 c -0.45,-0.31 -0.9,-0.66 -1.34,-1.04 l -0.17,-0.15 a 24.97,24.97 0 0 1 -2.31,-2.33 l -1.72,3.98 a 34,34 0 0 0 3.12,3.06 26.17,26.17 0 0 0 2.93,2.16 l 0.1,0.06 a 19.74,19.74 0 0 0 3,1.54 c 5.33,2.1 10.1,0.78 12.23,-4.18 3.2,-7.43 -0.74,-20.18 -8.8,-28.48 a 31.6,31.6 0 0 0 -0.8,-0.8 z"
     fill="#cde9f9"
     id="path866" />
  <path
     d="m 302.96,124.14 v 1.22 a 0.93,0.93 0 0 1 -1.4,0.8 l -5.75,-3.33 a 0.93,0.93 0 0 1 -0.46,-0.81 v -1.22 a 0.93,0.93 0 0 1 1.4,-0.8 l 5.75,3.33 c 0.29,0.17 0.47,0.48 0.46,0.81 z"
     fill="url(#k)"
     id="path868"
     style="fill:url(#k)" />
  <path
     d="m 321.15,140.68 v 1.22 a 0.93,0.93 0 0 1 -1.4,0.8 l -23.96,-13.8 a 0.93,0.93 0 0 1 -0.46,-0.82 v -1.22 a 0.93,0.93 0 0 1 1.4,-0.8 l 23.95,13.81 c 0.3,0.17 0.47,0.48 0.47,0.81 z"
     fill="url(#l)"
     id="path870"
     style="fill:url(#l)" />
  <path
     d="m 311.24,147.11 v 1.22 a 0.93,0.93 0 0 1 -1.4,0.8 l -14.08,-8.12 a 0.93,0.93 0 0 1 -0.47,-0.8 v -1.23 a 0.93,0.93 0 0 1 1.4,-0.8 l 14.08,8.12 c 0.3,0.16 0.47,0.47 0.47,0.8 z"
     fill="url(#m)"
     id="path872"
     style="fill:url(#m)" />
  <path
     d="m 317.42,144.6 v 1.22 a 0.93,0.93 0 0 1 -1.4,0.8 l -20.24,-11.67 a 0.93,0.93 0 0 1 -0.47,-0.81 v -1.22 a 0.93,0.93 0 0 1 1.4,-0.8 l 20.24,11.67 c 0.29,0.16 0.47,0.47 0.47,0.8 z"
     fill="#69aadd"
     id="path874" />
  <path
     d="m 228.47,31.49 v 1.1 a 0.84,0.84 0 0 1 -1.26,0.72 l -5.18,-2.98 a 0.84,0.84 0 0 1 -0.42,-0.73 v -1.1 c 0,-0.64 0.7,-1.04 1.26,-0.72 l 5.18,2.98 c 0.26,0.15 0.42,0.43 0.42,0.73 z m 16.4,14.83 v 1.1 a 0.84,0.84 0 0 1 -1.25,0.72 L 222.03,35.78 a 0.84,0.84 0 0 1 -0.42,-0.72 v -1.1 c 0,-0.65 0.7,-1.05 1.26,-0.73 l 21.58,12.36 c 0.26,0.15 0.42,0.43 0.42,0.73 z"
     fill="#cde9f9"
     id="path876" />
  <path
     opacity="0.53"
     d="m 235.98,52.13 v 1.1 a 0.84,0.84 0 0 1 -1.26,0.72 l -12.69,-7.26 a 0.84,0.84 0 0 1 -0.42,-0.73 v -1.1 c 0,-0.64 0.7,-1.05 1.26,-0.72 l 12.69,7.26 c 0.26,0.15 0.42,0.43 0.42,0.73 z"
     fill="#cde9f9"
     id="path878" />
  <path
     d="m 241.52,49.86 v 1.1 a 0.84,0.84 0 0 1 -1.25,0.72 L 222.03,41.24 a 0.84,0.84 0 0 1 -0.42,-0.73 v -1.1 c 0,-0.64 0.7,-1.05 1.26,-0.73 l 18.24,10.45 c 0.26,0.15 0.42,0.43 0.42,0.73 z"
     fill="#cde9f9"
     id="path880" />
  <path
     d="m 238,98.99 2.49,-1.44 -0.05,16.87 -2.5,1.44 z"
     fill="url(#n)"
     id="path882"
     style="fill:url(#n)" />
  <path
     d="m 243.08,98.54 v -0.06 l -0.01,-0.02 v -0.03 l -0.01,-0.02 v -0.03 l -0.01,-0.02 v -0.02 l -0.02,-0.02 V 98.3 l -0.01,-0.03 -0.01,-0.02 -0.01,-0.02 -0.01,-0.02 -0.01,-0.02 -7.74,-15.4 -0.01,-0.02 a 1.3,1.3 0 0 0 -0.09,-0.13 c 0,-0.01 0,-0.02 -0.02,-0.03 l -0.01,-0.02 -0.02,-0.02 -0.01,-0.02 c -0.01,0 -0.02,0 -0.02,-0.02 l -0.02,-0.01 -0.02,-0.02 -0.02,-0.02 -0.02,-0.01 -0.02,-0.02 -0.02,-0.01 -0.02,-0.02 h -0.02 l -0.01,-0.02 h -0.02 l -0.02,-0.02 h -0.03 l -0.02,-0.01 -0.02,-0.01 h -0.06 l -0.02,-0.01 h -0.04 l -0.04,0.01 a 0.15,0.15 0 0 0 -0.03,0.02 l -2.49,1.44 c 0.05,-0.02 0.1,-0.03 0.15,-0.02 0.05,0 0.1,0.02 0.16,0.05 a 0.77,0.77 0 0 1 0.19,0.16 c 0.06,0.06 0.1,0.14 0.15,0.22 l 7.74,15.4 c 0.04,0.07 0.07,0.15 0.08,0.22 0.02,0.06 0.02,0.13 0.02,0.18 0,0.06 -0.02,0.11 -0.04,0.15 a 0.23,0.23 0 0 1 -0.1,0.1 l 2.5,-1.45 a 0.22,0.22 0 0 0 0.08,-0.09 v -0.01 l 0.02,-0.03 v -0.02 l 0.01,-0.02 v -0.02 l 0.01,-0.02 v -0.07 z"
     fill="url(#o)"
     id="path884"
     style="fill:url(#o)" />
  <path
     d="m 232.42,83.84 c 0.12,0.08 0.24,0.2 0.33,0.38 l 7.74,15.4 c 0.23,0.46 0.03,0.83 -0.34,0.62 l -2.15,-1.25 -0.05,16.87 -11.31,-6.52 0.05,-16.87 -2.08,-1.2 c -0.37,-0.21 -0.57,-0.82 -0.34,-1 l 7.8,-6.44 c 0.1,-0.07 0.22,-0.06 0.34,0.01 z"
     fill="url(#p)"
     id="path886"
     style="fill:url(#p)" />
  <path
     d="M 358.52,205.92 V 230 c 0,3.4 -3.68,5.53 -6.63,3.83 l -19.82,-11.4 v -16.51 c 0,-1.59 -0.85,-3.05 -2.22,-3.84 l -58.06,-33.4 v -7.57 a 4.44,4.44 0 0 1 6.64,-3.83 l 38.61,22.21 39.27,22.6 a 4.41,4.41 0 0 1 2.22,3.82 z"
     fill="url(#q)"
     id="path888"
     style="fill:url(#q)" />
  <path
     d="m 333.98,125.03 c -2.84,-1.62 -5.16,-0.3 -5.16,2.93 0,3.24 2.32,7.24 5.16,8.9 2.83,1.65 5.15,0.33 5.15,-2.94 0,-3.27 -2.32,-7.27 -5.15,-8.9 z"
     fill="#bd8aae"
     id="path890" />
  <path
     d="m 225.37,84.09 a 19.78,19.78 0 0 1 -3.55,1.76 c -11.4,4.3 -20.32,0.76 -24.37,-1.52 a 2.46,2.46 0 0 1 -0.8,-3.58 l 1.25,-1.66 -1.4,1.85 0.14,-0.18 a 2.27,2.27 0 0 1 2.95,-0.58 c 3.21,1.81 10.69,4.86 20.45,1.18 6.34,-2.39 9.25,-8.28 10.38,-11.37 a 2.25,2.25 0 0 1 2.7,-1.41 c 1.4,0.36 2.2,1.88 1.71,3.22 -1.18,3.25 -3.9,8.8 -9.46,12.29 z"
     fill="#aecfdc"
     id="path892" />
  <path
     d="m 243.25,66.43 c 0,0 -1.48,5.7 -5.83,7.48 -4.36,1.78 -9.58,-0.3 -10.1,-4.22 -0.52,-3.93 2.1,-8.29 2.1,-8.29 l 5.38,1.15 c 0,0 -2.23,3 -1.88,5.28 0.36,2.28 5.34,2.85 6.47,-2.41 l 3.86,1 z m -83.69,63.67 c -10.73,-6.19 -10.73,-16.35 0,-22.58 10.73,-6.24 28.3,-6.24 39.02,0 10.73,6.23 10.73,16.4 0,22.58 -10.73,6.2 -28.29,6.2 -39.02,0 z"
     fill="#2a2f6d"
     id="path894" />
  <path
     d="m 161.36,121.19 c -10.29,-5.37 -10.29,-14.18 0,-19.59 10.29,-5.4 27.12,-5.4 37.4,0 10.3,5.4 10.3,14.22 0,19.6 -10.28,5.36 -27.11,5.36 -37.4,0 z"
     fill="#2a2f6d"
     id="path896" />
  <path
     d="m 206.52,112.22 h -0.4 v 9.1 h 0.4 z"
     fill="#2a2f6d"
     id="path898" />
  <path
     d="m 206.51,110.97 -3.97,-6.22 -4.26,-2.85 c -3.68,-1.57 -8.2,-2.33 -12.98,-2.33 v 0.4 c 0.77,0 1.52,0.02 2.26,0.06 -2.88,-0.05 -6.22,0.13 -10.02,0.58 2.56,-0.42 5.17,-0.64 7.76,-0.64 v -0.4 c -7.82,0 -16.34,2.04 -23.05,5.96 -0.48,0.28 -0.93,0.57 -1.38,0.86 l -8.84,1.06 v 11.97 l 0.03,0.01 c 0.15,3.25 2.09,6.28 5.93,8.52 4,2.34 9.44,3.48 15.27,3.48 7.82,0 16.35,-2.05 23.05,-5.97 6.74,-3.94 10.22,-8.94 10.2,-13.53 0.04,-0.61 0,-0.96 0,-0.96 z m -38.82,19.68 z m -3.65,-0.72 -0.14,-0.03 c 0.05,0 0.09,0.02 0.14,0.03 z"
     fill="#2a2f6d"
     id="path900" />
  <path
     d="m 178.06,123.4 c -1.42,0 -2.95,-0.03 -4.8,-0.1 -6.76,-0.24 -10.02,-1.07 -15.18,-3.87 -3.71,-2.01 -5.78,-5.09 -5.82,-8.65 h -0.01 V 37.62 h 0.01 c 0,-2.34 0.91,-5.2 2.53,-7.84 a 21.8,21.8 0 0 1 7.56,-7.4 c 6.7,-3.93 15.36,-4.26 22.94,-4.26 6.8,0 12.42,2.7 15.16,4.3 1.57,0.92 2.85,1.98 3.8,3.17 l -0.31,0.24 c 0.28,0.38 0.53,0.74 0.76,1.1 l 0.34,-0.2 c 0.6,1 0.99,2.08 1.15,3.2 l 0.02,0.13 v 0.07 c 0.06,0.46 0.08,0.92 0.06,1.37 v 0.06 l 0.02,0.04 v 78.21 h -0.02 c -0.1,4.46 -3.3,7.79 -10.05,10.48 -5.45,2.18 -10.88,3.11 -18.16,3.11 z"
     fill="url(#r)"
     id="path902"
     style="fill:url(#r)" />
  <path
     d="m 185.29,18.35 c 6.76,0 12.32,2.67 15.04,4.26 1.55,0.9 2.8,1.95 3.74,3.12 l -0.32,0.24 c 0.28,0.38 0.53,0.73 0.76,1.09 l 0.34,-0.21 c 0.58,0.98 0.96,2.02 1.12,3.12 v 0.07 l 0.02,0.11 c 0.05,0.45 0.07,0.9 0.05,1.34 v 0.13 l 0.02,0.04 v 77.64 h -0.02 v 0.5 c -0.1,4.36 -3.25,7.63 -9.9,10.29 -5.43,2.16 -10.83,3.09 -18.08,3.09 -1.42,0 -2.94,-0.03 -4.8,-0.1 -6.71,-0.25 -9.95,-1.07 -15.07,-3.85 -3.64,-1.97 -5.67,-4.98 -5.7,-8.46 h -0.02 V 37.63 h 0.02 c -0.01,-2.3 0.9,-5.11 2.5,-7.72 a 21.57,21.57 0 0 1 7.47,-7.32 c 6.66,-3.9 15.28,-4.23 22.83,-4.23 z m 0,-0.45 c -7.82,0 -16.35,0.36 -23.06,4.29 -6.73,3.94 -10.22,10.84 -10.2,15.43 l -0.01,-1.9 v 76.48 l 0.02,-1.42 c 0.03,3.38 1.9,6.66 5.94,8.85 5.23,2.84 8.62,3.66 15.27,3.9 1.66,0.06 3.25,0.1 4.81,0.1 6.37,0 12.05,-0.65 18.24,-3.13 7.07,-2.82 10.09,-6.29 10.2,-10.68 v -0.52 0.52 l 0.01,9.38 V 31.55 l -0.02,-0.04 c 0.02,-0.47 0,-0.95 -0.06,-1.41 l 0.08,-0.2 h -0.1 c -0.42,-2.93 -2.34,-5.63 -5.85,-7.68 -4,-2.34 -9.44,-4.32 -15.27,-4.32 z m 19.6,8.91 z"
     fill="#ffffff"
     id="path904" />
  <path
     opacity="0.5"
     d="M 205.99,111.25 V 34.73 c 0,0 -4.8,-7.75 -13.06,-6.92 -8.25,0.83 -9.59,5.53 -9.59,5.53 v 85.19 c 0,0 0.1,2.07 1.45,2.8 4.06,2.17 10.3,1.19 19.8,-6.26 1.4,-1.1 0.78,-1.95 1.4,-3.82 z"
     fill="url(#s)"
     id="path906"
     style="fill:url(#s)" />
  <path
     d="m 164.91,103.52 c -1.74,3.86 -5.15,6.1 -7.63,5 -2.49,-1.12 -3.1,-5.15 -1.37,-9.02 1.73,-3.87 5.15,-6.1 7.63,-5 2.48,1.11 3.1,5.15 1.37,9.02 z"
     fill="url(#t)"
     id="path908"
     style="fill:url(#t)" />
  <path
     d="m 149.03,110.62 a 19.8,19.8 0 0 0 -0.76,3.88 c -1.13,12.13 4.64,19.79 7.9,23.08 a 2.46,2.46 0 0 0 3.68,-0.17 l 1.27,-1.64 -1.42,1.84 0.14,-0.18 c 0.7,-0.9 0.6,-2.17 -0.23,-3 -2.6,-2.62 -7.5,-9.02 -6.54,-19.4 0.63,-6.74 5.55,-11.1 8.23,-13 a 2.24,2.24 0 0 0 0.66,-2.98 2.5,2.5 0 0 0 -3.57,-0.8 c -2.82,2 -7.46,6.09 -9.36,12.37 z"
     fill="#cde9f9"
     id="path910" />
  <path
     d="m 171.2,135.93 c 0,0 -4.9,-3.26 -9.34,-1.68 -4.44,1.57 -6.94,6.6 -4.7,9.87 2.22,3.27 7.08,4.78 7.08,4.78 l 3.25,-4.45 c 0,0 -3.66,-0.75 -4.92,-2.68 -1.26,-1.93 2.07,-5.68 6.43,-2.51 l 2.2,-3.32 z"
     fill="#2a2f6d"
     id="path912" />
  <path
     d="m 182.11,92.63 h -6.1 a 2.2,2.2 0 0 1 -2.19,-2.19 c 0,-1.2 1,-2.2 2.2,-2.2 h 6.09 c 1.2,0 2.2,1 2.2,2.2 0,1.2 -1,2.2 -2.2,2.2 z m 16.45,-0.36 h -6.09 a 2.2,2.2 0 0 1 -2.2,-2.2 c 0,-1.2 1,-2.19 2.2,-2.19 h 6.09 c 1.2,0 2.2,1 2.2,2.2 0,1.2 -1,2.2 -2.2,2.2 z"
     fill="#ffffff"
     id="path914" />
  <path
     d="m 233.05,298.01 c 0,0 4.55,-5.3 8.32,-4.8 3.77,0.5 2.83,7.08 -4.16,12.1 -6.98,5.04 -19.57,5.48 -4.16,-7.3 z m -24.35,-9.28 c 0,0 3.46,-3.88 6.34,-3.51 2.87,0.37 2.15,5.19 -3.17,8.88 -5.33,3.69 -14.93,4.01 -3.17,-5.36 z"
     fill="#222457"
     id="path916" />
  <path
     d="m 199.06,206.78 c 0,0 -9.5,5.71 -2.92,30.93 6.59,25.22 7.22,27.21 7.47,31.23 0.25,4.01 -0.68,25.85 -0.68,25.85 0,0 2.67,2.59 7.94,-0.45 0,0 4.35,-27 4.76,-34.22 0.41,-7.21 -1.7,-43.94 -1.7,-43.94 z"
     fill="#214b72"
     id="path918" />
  <path
     d="m 235.7,306.05 c 0,0 -0.67,0.74 -2.2,1.2 -1.67,0.5 -4.37,0.66 -8.34,-0.85 l -0.52,-0.2 c 0,0 3.76,-33.9 -0.15,-44.8 -1.72,-4.8 -22.11,-30.84 -20.82,-44.85 0.05,-0.59 0.15,-1.16 0.28,-1.7 3.33,-13.47 23.3,-1.14 23.3,-1.14 l 0.42,1.7 c 1.9,7.7 9.64,39.08 10.5,45.55 0.68,5.1 -2.49,40.96 -2.47,45.09 z"
     fill="#3c7fbe"
     id="path920" />
  <path
     d="m 233.24,275.99 c -2.04,7.63 -6,22.53 -8.08,30.4 -0.17,-0.05 -0.34,-0.12 -0.52,-0.2 0,0 3.76,-33.9 -0.15,-44.79 -1.72,-4.8 -22.11,-30.84 -20.82,-44.84 6.28,-7.52 10.26,-0.38 10.26,-0.38 0,0 4.2,18.41 11.8,28.29 7.59,9.88 10.38,20.86 7.51,31.52 z"
     fill="url(#u)"
     id="path922"
     style="fill:url(#u)" />
  <path
     d="m 235.7,306.05 c 0,0 -0.67,0.74 -2.2,1.2 0.8,-8.62 3.12,-34.24 3.46,-41.92 0.4,-9.3 -11.4,-45.92 -11.4,-45.92 a 8.08,8.08 0 0 1 2.11,-3.99 c 1.9,7.7 9.64,39.07 10.5,45.54 0.68,5.11 -2.49,40.96 -2.47,45.1 z"
     fill="url(#v)"
     id="path924"
     style="fill:url(#v)" />
  <path
     d="m 198.79,165.99 a 2.12,2.12 0 0 0 -3.95,-0.48 c -4.37,8.56 -11.95,25.26 -7.81,30.71 5.65,7.45 12.64,9.1 12.64,9.1 0,0 4.6,-22.9 2.29,-28.42 -1.22,-2.92 -2.37,-7.36 -3.17,-10.9 z"
     fill="#90a0a5"
     id="path926" />
  <path
     d="m 220.31,150.19 c -0.38,2.91 -1.75,5.9 -4.7,6.51 l -0.08,0.02 v 8.52 c 0,0 -6.22,1.32 -8.18,-0.89 -1.57,-1.75 -1.37,-7.45 -0.9,-11.54 -4.46,-5.57 -2.02,-15.6 0.32,-17.74 2.7,-2.46 10.83,-3.38 13.54,1.5 0,0 0.6,9.06 0,13.62 z m 13.05,16.72 c 0,0 -4.4,-0.81 -5.12,-4.1 -0.71,-3.28 -3.08,-3.93 -1.32,-4.25 1.77,-0.31 2.65,1.93 2.65,1.93 0,0 0.7,-4.01 -1.31,-5.78 -2,-1.77 3.02,1.21 4.16,2.03 1.15,0.81 2.44,-0.56 3.81,2.47 1.38,3.03 0.98,7.93 -2.87,7.7 z"
     fill="#fde0d9"
     id="path928" />
  <path
     d="m 242.02,187.67 c 0.03,0.75 -0.05,1.54 -0.2,2.36 -0.28,1.4 -0.77,2.86 -1.3,4.2 a 39.7,39.7 0 0 1 -2.5,5.07 c -12.68,2.64 -8.96,-28.98 -7.81,-32.11 1.15,-3.13 7.56,-2.56 7.56,-2.56 0,0 -1,-0.04 0.56,2.93 1.4,2.63 3.55,15.36 3.7,20.1 z"
     fill="#cde9f9"
     id="path930" />
  <path
     d="m 241.82,190.03 c -0.28,1.4 -0.77,2.86 -1.3,4.2 -1.44,-6.97 -7.28,-25.62 -7.28,-25.62 0,0 4.05,6.06 6.33,11.42 1.35,3.2 1.97,7.24 2.24,10 z"
     fill="#aecfdc"
     id="path932" />
  <path
     d="m 225.29,219.82 c 0,0 -4.27,10.56 -31.07,-2.65 l -1.12,-47.5 a 6.78,6.78 0 0 1 3.51,-5.68 c 4.5,-2.46 12.64,-5.88 19.09,-2.85 0,0 17.1,3.3 18.94,8.7 1.83,5.4 5.64,18.22 5.64,18.22 0,0 0.7,8.54 -2.25,11.24 -2.96,2.7 -5.91,-0.4 -5.91,-0.4 l -6,-10.5 2.01,27.1 z"
     fill="#cde9f9"
     id="path934" />
  <path
     d="m 238.02,199.3 c -2.95,2.7 -5.9,-0.4 -5.9,-0.4 l -6,-10.5 0.03,0.54 1.98,26.57 -2.57,3.9 -0.27,0.4 c 0,0 -1.75,4.34 -10.05,3.98 -4.66,-0.2 -11.39,-1.87 -21.02,-6.62 l -1.13,-47.5 a 6.8,6.8 0 0 1 3.52,-5.68 38.35,38.35 0 0 1 8.11,-3.31 c 3.6,-0.94 7.53,-1.16 10.97,0.46 0,0 17.11,3.3 18.95,8.7 0.76,2.25 1.87,5.8 2.9,9.16 1.44,4.7 2.73,9.06 2.73,9.06 0,0 0.71,8.54 -2.24,11.24 z"
     fill="url(#w)"
     id="path936"
     style="fill:url(#w)" />
  <path
     d="m 222.34,135.67 c 0,0 -1.96,6.5 -3.63,7.37 -1.66,0.86 -1.37,2.52 -1.37,2.52 0,0 -0.84,-1.76 -1.6,-1.76 -0.75,0 -1.1,3.92 0,5.1 l 1.11,1.16 c 0,0 -2.35,4.41 -5.49,5 -3.13,0.59 -7.64,-1.08 -10.49,-3.92 -2.84,-2.84 -3.2,-12.73 1.74,-15.47 0,0 -0.13,-5.78 3.85,-7.15 3.98,-1.37 10.69,-1.65 12.15,-2.53 1.48,-0.9 1.25,-1.78 1.25,-1.78 0,0 0.52,2.16 -0.95,3.63 0,0 2.14,-0.51 2.94,-2.51 l 0.8,-2 c 0,0 1.16,5.59 -0.6,7.94 0,0 1.17,-0.6 1.96,-1.77 0,0 -1.11,4.49 -1.67,6.17 z"
     fill="#2a2f6d"
     id="path938" />
  <path
     d="m 215.24,223.79 c -4.66,-0.2 -11.39,-1.87 -21.02,-6.62 l -1.13,-47.5 a 6.8,6.8 0 0 1 3.52,-5.68 c 2.1,-1.14 4.98,-2.5 8.11,-3.31 6.3,4.67 6.53,15.84 5.18,26.47 -1.54,12.17 2.9,28.76 5.34,36.64 z"
     fill="url(#x)"
     id="path940"
     style="fill:url(#x)" />
  <path
     d="m 228.13,215.51 -2.57,3.9 c -1.11,-6.03 -2.25,-14 -1.55,-18.56 1.22,-8.05 -0.22,-21.72 -0.22,-21.72 0,0 1.15,4.92 2.36,9.81 z"
     fill="#7d989f"
     id="path942" />
  <path
     d="m 237.53,179.73 c 0,0 -2.3,-4.84 -4.29,-9.4 -1.98,-4.55 -12.71,-5.72 -18.6,-7.93 -3.1,-1.16 -7.66,-1.38 -11.27,-1.33 l 1.35,-0.4 c 3.6,-0.93 7.53,-1.15 10.97,0.47 0,0 17.11,3.3 18.95,8.7 0.76,2.25 1.87,5.8 2.9,9.16 l -0.01,0.74 z"
     fill="url(#y)"
     id="path944"
     style="fill:url(#y)" />
  <path
     d="m 215.6,156.7 a 0.4,0.4 0 0 1 -0.07,0.02 v 2.5 c -1.35,-0.9 -2.6,-3.18 -2.6,-3.18 a 7,7 0 0 0 2.67,0.66 z"
     fill="#ecbfb9"
     id="path946" />
  <path
     d="m 105.69,154.81 c 0,0 -1.96,6.1 4.62,31.32 6.59,25.22 1.75,36.68 2,40.7 0.25,4.01 -1.57,12.96 -1.57,12.96 0,0 2.16,4.67 7.44,1.63 0,0 8.4,-31.24 8.82,-38.46 0.4,-7.22 -6.25,-41.7 -6.25,-41.7 l -15.06,-6.44 z m 38.06,88.74 c 0,0 3.84,-4.48 7.03,-4.06 3.19,0.43 2.39,5.99 -3.52,10.24 -5.9,4.26 -16.55,4.63 -3.51,-6.18 z"
     fill="#222457"
     id="path948" />
  <path
     d="m 117.06,235.96 c 0,0 2.93,-3.29 5.36,-2.97 2.43,0.3 1.82,4.38 -2.68,7.5 -4.5,3.13 -12.62,3.4 -2.68,-4.53 z"
     fill="#222457"
     id="path950" />
  <path
     d="m 146.32,244.04 -0.01,0.2 c 0,0 -1.11,11.25 -8.88,7.5 0,0 0.02,-40.38 -2.44,-45.1 -2.47,-4.7 -28.4,-35.88 -24.22,-49.11 3.64,-11.58 19.57,-0.58 23.53,2.36 l 0.89,0.69 c 0,0 12,34.11 13.77,41.36 1.74,7.14 -2.3,37.3 -2.64,42.1 z"
     fill="#2a2f6d"
     id="path952" />
  <path
     d="m 146.32,244.05 c 0.14,-2.66 1.6,-31.56 0.47,-38.66 -1.18,-7.44 -16.49,-42.89 -16.49,-42.89 l 4,-2.6 c 0.57,0.42 0.89,0.68 0.89,0.68 0,0 12,34.11 13.77,41.36 1.74,7.14 -2.3,37.3 -2.64,42.1 z"
     fill="url(#z)"
     id="path954"
     style="fill:url(#z)" />
  <path
     d="m 135.08,94.31 c -0.39,2.94 -1.78,5.96 -4.78,6.53 v 8.52 c 0,0 -4.92,0.32 -6.9,-1.89 -1.55,-1.75 -3,-6.58 -2.17,-10.54 -4.46,-5.57 -2.04,-15.6 0.31,-17.74 2.7,-2.46 10.83,-3.38 13.54,1.5 0,0 0.6,9.06 0,13.62 z"
     fill="#fde0d9"
     id="path956" />
  <path
     d="m 168.62,112.46 9.79,5.82 a 3.46,3.46 0 0 1 1.53,3.9 l -4.95,17.84 -11.17,-6.3 a 3.56,3.56 0 0 1 -1.67,-3.93 l 3.94,-16.22 a 1.71,1.71 0 0 1 2.53,-1.11 z"
     fill="#bd8aae"
     id="path958" />
  <path
     d="m 165.76,140.71 c 0,0 -0.14,-4.47 2.91,-5.87 3.06,-1.4 3.2,-3.84 3.88,-2.19 0.69,1.66 -1.31,3 -1.31,3 0,0 4.06,-0.18 5.37,-2.51 1.3,-2.33 -0.55,3.2 -1.1,4.5 -0.56,1.29 1.06,2.25 -1.6,4.24 -2.68,1.99 -7.56,2.64 -8.15,-1.17 z"
     fill="#fde0d9"
     id="path960" />
  <path
     d="m 169.38,143.5 c 0,0 -9.27,4.66 -17.7,5.44 -6.5,0.6 -11.58,-8.19 -15.4,-14 l -0.35,-0.52 -1.2,14.08 0.6,12.8 0.01,0.15 c 0,0 -6.06,12.79 -32.86,-0.43 l 0.02,-47.36 c 0,0 10.2,-15.45 19.62,-11.02 9.43,4.43 18,2.5 20.65,13.99 1.66,7.2 6.67,19.17 8.91,20.7 3,2.06 14.8,0.94 14.8,0.94 0,0 1.4,-0.16 2.9,5.23 z"
     fill="#bd8aae"
     id="path962" />
  <path
     d="m 169.38,143.5 c 0,0 -9.27,4.66 -17.7,5.44 -6.5,0.6 -11.58,-8.19 -15.4,-14 l -0.35,-0.52 -0.07,0.82 -1.13,13.26 0.6,12.8 0.01,0.15 c 0,0 -0.24,0.51 -0.84,1.22 -2.01,2.38 -8.06,7.04 -22.56,2.28 a 72.16,72.16 0 0 1 -9.46,-3.93 l 0.02,-47.36 c 0,0 10.2,-15.45 19.62,-11.02 0.56,0.26 1.13,0.5 1.68,0.73 8.75,3.51 16.49,2.45 18.97,13.26 1.66,7.2 6.67,19.17 8.91,20.7 0.27,0.19 0.6,0.34 1,0.48 4,1.4 13.8,0.46 13.8,0.46 0,0 1.12,-0.13 2.43,3.7 0.15,0.45 0.31,0.96 0.47,1.53 z"
     fill="#3c7fbe"
     id="path964" />
  <path
     d="m 134.5,162.67 c -2.01,2.38 -8.06,7.04 -22.56,2.28 1.42,-15.66 5.96,-61.61 10.14,-59.82 5.03,2.17 5.18,2.1 9.38,10.17 4.2,8.07 -5.74,19.69 -4.04,33.67 0.92,7.6 4.24,11.61 7.08,13.7 z"
     fill="url(#A)"
     id="path966"
     style="fill:url(#A)" />
  <path
     opacity="0.31"
     d="m 152.67,137.81 c -2.4,-0.29 -2.74,-1.68 -5.1,-5.17 -3.23,-4.8 -5.68,-18.87 -8.72,-21.74 -3.04,-2.88 -14.3,-5.77 -14.3,-5.77 0,0 -2.15,-0.77 -0.75,-1.77 8.75,3.52 16.49,2.46 18.97,13.27 1.66,7.2 6.67,19.17 8.91,20.7 0.27,0.18 0.6,0.34 1,0.48 z"
     fill="#cde9f9"
     id="path968" />
  <path
     d="m 136.63,82.26 c -2.97,4.4 -5.13,3.74 -6.33,6.28 0,0 -0.36,0.52 -0.63,1.16 -0.22,0.55 -0.38,1.18 -0.16,1.66 -0.12,-0.18 -1.59,-2.46 -1.73,0.98 -0.15,3.58 2.52,4.42 2.52,4.42 0,0 -3.86,0.52 -3.26,8.5 0.6,7.99 12.4,61.01 -19.7,63.82 -10.79,0.94 -16.86,-2.85 -19.89,-8.62 a 21.05,21.05 0 0 1 -1.98,-5.86 c -2.14,-11.22 2.77,-25.57 7.1,-30.38 7.72,-8.6 14.77,-19.09 14.02,-31.44 -0.56,-9.39 8.49,-24.7 22.13,-22.3 a 21.8,21.8 0 0 1 8.18,3.4 c 0,0 2.7,3.97 -0.27,8.38 z"
     fill="url(#B)"
     id="path970"
     style="fill:url(#B)" />
  <path
     d="m 135.93,134.41 -1.2,14.09 0.6,12.8 c -2.86,-3.76 -3.44,-14.3 -3.83,-22.79 -0.49,-10.67 2.75,-19.78 2.75,-19.78 -0.99,5.52 0.77,12.33 2.02,16.2 z"
     fill="#2a2f6d"
     id="path972" />
  <path
     d="m 169.38,143.5 c 0,0 -9.27,4.66 -17.7,5.44 -6.5,0.6 -11.58,-8.19 -15.4,-14 l -0.35,-0.53 -0.07,0.83 c -1.68,-5.77 -1.83,-11.03 -1.83,-11.03 0,0 6.55,17.16 17.17,20.37 8.4,2.54 15.22,-1.02 17.7,-2.62 0.16,0.46 0.32,0.97 0.48,1.54 z"
     fill="url(#C)"
     id="path974"
     style="fill:url(#C)" />
  <path
     d="m 127.04,105.26 c 0.6,7.99 12.4,61.02 -19.7,63.82 -10.78,0.94 -16.86,-2.85 -19.89,-8.62 4.39,0.4 9.89,-0.55 16.61,-4.17 21.37,-11.5 16.07,-59.98 19.27,-64.64 1.97,-2.89 4.62,-2.59 6.34,-1.94 -0.22,0.54 -0.38,1.17 -0.16,1.65 -0.12,-0.18 -1.59,-2.46 -1.73,0.98 -0.15,3.58 2.52,4.42 2.52,4.42 0,0 -3.86,0.52 -3.26,8.5 z"
     fill="url(#D)"
     id="path976"
     style="fill:url(#D)" />
  <path
     opacity="0.36"
     d="m 123.22,83.82 c 0,0 -6.14,0.23 -11.28,25.55 -5.14,25.32 -3.6,37.68 -21.4,42.98 0,0 10.38,-3.56 13.72,-25.1 3.33,-21.54 5.78,-35.95 18.96,-43.43 z"
     fill="url(#E)"
     id="path978"
     style="fill:url(#E)" />
  <path
     d="m 128.72,70.47 c -4.54,0.72 -14.8,3.42 -18.41,13.35 -4.68,12.88 0.04,18.79 -7.81,29.84 -7.85,11.05 -14.51,16.92 -16.28,31.61 -0.44,3.71 -0.67,6.8 -0.75,9.33 -2.14,-11.22 2.77,-25.57 7.1,-30.38 7.72,-8.6 14.77,-19.09 14.02,-31.44 -0.56,-9.39 8.49,-24.7 22.13,-22.3 z"
     fill="url(#F)"
     id="path980"
     style="fill:url(#F)" />
  <path
     d="m 130.3,100.88 v 3.39 c -1.25,-1.15 -2,-4.1 -2,-4.1 0.64,0.5 1.34,0.69 2,0.71 z"
     fill="#ecbfb9"
     id="path982" />
  <path
     d="m 168.02,116.05 8.53,4.8 c 0.1,0.07 0.16,0.2 0.13,0.31 l -1.21,4.36 c -0.08,0.3 -0.53,0.25 -0.53,-0.07 -0.01,-1.72 -0.25,-3.8 -1.3,-4.13 -1.83,-0.58 -3.6,1.83 -5.14,0 -1.24,-1.46 -1.01,-4.09 -0.88,-5.07 0.03,-0.2 0.24,-0.3 0.4,-0.2 z"
     fill="#cde9f9"
     id="path984" />
  <path
     d="m 165.81,125.5 8.22,4.4 c 0.29,0.15 0.65,0.01 0.75,-0.3 l 0.1,-0.3 a 0.49,0.49 0 0 0 -0.26,-0.58 l -8.27,-4.22 c -0.3,-0.16 -0.66,0 -0.75,0.3 l -0.04,0.14 c -0.06,0.22 0.04,0.45 0.25,0.56 z m -0.84,2.55 8.22,4.4 c 0.29,0.15 0.65,0 0.75,-0.3 l 0.1,-0.3 a 0.48,0.48 0 0 0 -0.25,-0.58 l -8.28,-4.23 c -0.3,-0.15 -0.66,0 -0.74,0.3 l -0.05,0.15 c -0.06,0.22 0.04,0.45 0.25,0.56 z"
     fill="#ffffff"
     id="path986" />
  <path
     d="m 262.41,259.15 v 7.17 c 0,1.77 0.94,3.4 2.48,4.29 l 21.35,12.31 a 6.26,6.26 0 0 0 6.25,0 l 79.89,-46.08 a 4.95,4.95 0 0 0 2.47,-4.28 v -7.51 c 0,0 -27.87,0.73 -33.75,3.37 -5.89,2.64 -78.69,30.73 -78.69,30.73 z"
     fill="url(#G)"
     id="path988"
     style="fill:url(#G)" />
  <path
     d="m 263.69,261.34 20.6,11.92 a 10.15,10.15 0 0 0 10.16,0.01 l 78.8,-45.46 a 3.19,3.19 0 0 0 0,-5.52 l -17.83,-10.28 a 13.93,13.93 0 0 0 -13.9,0 l -77.83,44.9 a 2.56,2.56 0 0 0 0,4.43 z"
     fill="#e7f6fd"
     id="path990" />
  <path
     d="m 263.69,261.34 20.6,11.92 a 10.15,10.15 0 0 0 10.16,0.01 l 78.8,-45.46 a 3.19,3.19 0 0 0 0,-5.52 l -17.83,-10.28 a 13.93,13.93 0 0 0 -13.9,0 l -77.83,44.9 a 2.56,2.56 0 0 0 0,4.43 z"
     fill="#cde9f9"
     id="path992" />
  <path
     d="m 342.16,218.85 -0.01,-1.76 v 3.39 -1.63 z"
     fill="url(#H)"
     id="path994"
     style="fill:url(#H)" />
  <path
     d="m 358.36,220.97 -2.15,1.25 v 1.63 l 2.14,-1.25 v -1.63 z"
     fill="url(#I)"
     id="path996"
     style="fill:url(#I)" />
  <path
     d="m 333.39,222.22 -2.16,-1.25 v 1.63 l 2.16,1.25 z"
     fill="url(#J)"
     id="path998"
     style="fill:url(#J)" />
  <path
     d="m 337.97,227.86 0.05,-0.17 c 0.02,-0.07 0.03,-0.14 0.06,-0.2 l 0.07,-0.18 0.1,-0.21 0.1,-0.15 a 3.24,3.24 0 0 1 0.56,-0.7 l 0.1,-0.1 0.22,-0.18 0.2,-0.16 0.24,-0.16 0.26,-0.17 a 7.18,7.18 0 0 1 1.4,-0.62 l 0.19,-0.06 0.35,-0.1 0.28,-0.08 0.38,-0.08 0.26,-0.05 c 0.25,-0.05 0.52,-0.08 0.78,-0.11 l 0.24,-0.02 c 0.16,-0.01 0.31,-0.03 0.47,-0.03 l 0.3,-0.01 h 0.38 a 16.66,16.66 0 0 1 1.63,0.13 10.27,10.27 0 0 1 0.65,0.12 l 0.43,0.1 0.24,0.07 a 8.9,8.9 0 0 1 1.08,0.4 l 0.18,0.08 c 0.18,0.08 0.35,0.17 0.5,0.26 1.37,0.78 2.04,1.81 2.04,2.84 v -1.63 c 0,-1.03 -0.67,-2.06 -2.03,-2.84 -0.16,-0.1 -0.33,-0.18 -0.5,-0.26 l -0.18,-0.08 -0.31,-0.14 h -0.04 c -0.24,-0.1 -0.49,-0.19 -0.74,-0.26 l -0.06,-0.02 -0.17,-0.04 a 8.66,8.66 0 0 0 -0.43,-0.1 l -0.12,-0.03 c -0.05,-0.02 -0.11,-0.02 -0.17,-0.03 l -0.36,-0.07 -0.15,-0.02 -0.16,-0.02 -0.35,-0.04 -0.16,-0.02 h -0.15 l -0.35,-0.02 -0.18,-0.01 h -0.81 l -0.47,0.04 -0.19,0.01 h -0.06 l -0.78,0.12 h -0.04 l -0.22,0.05 -0.38,0.08 -0.27,0.07 -0.36,0.1 -0.07,0.03 -0.12,0.04 -0.55,0.2 -0.2,0.1 c -0.22,0.1 -0.44,0.2 -0.64,0.32 l -0.09,0.05 -0.17,0.12 -0.25,0.16 -0.2,0.15 -0.2,0.18 -0.05,0.04 -0.07,0.07 -0.3,0.32 -0.06,0.06 -0.04,0.07 c -0.06,0.08 -0.12,0.16 -0.16,0.25 l -0.07,0.1 -0.03,0.05 -0.1,0.21 -0.06,0.13 -0.01,0.04 -0.06,0.2 -0.04,0.14 v 0.04 c -0.02,0.07 -0.02,0.15 -0.03,0.22 l -0.01,0.14 v 0.06 l -0.01,1.63 0.02,-0.2 z"
     fill="url(#K)"
     id="path1000"
     style="fill:url(#K)" />
  <path
     d="m 358.35,228.19 a 4.97,4.97 0 0 1 -0.28,0.68 l -0.1,0.2 a 4.51,4.51 0 0 1 -0.35,0.57 l -0.17,0.23 -0.12,0.15 a 7.6,7.6 0 0 1 -0.36,0.42 l -0.05,0.06 a 8.52,8.52 0 0 1 -0.66,0.63 v 1.63 l 0.25,-0.23 0.05,-0.05 0.35,-0.35 0.06,-0.06 0.36,-0.42 0.03,-0.03 0.08,-0.12 0.17,-0.23 a 4.33,4.33 0 0 0 0.25,-0.4 l 0.05,-0.07 0.05,-0.1 0.1,-0.2 0.09,-0.19 0.08,-0.2 0.04,-0.08 0.07,-0.2 h 3.05 v -1.64 z"
     fill="url(#L)"
     id="path1002"
     style="fill:url(#L)" />
  <path
     d="m 333.44,232.75 v -1.63 a 6.78,6.78 0 0 1 -2.11,-2.93 h -3.05 v 1.63 h 3.04 a 6.78,6.78 0 0 0 2.12,2.93 z"
     fill="url(#M)"
     id="path1004"
     style="fill:url(#M)" />
  <path
     d="m 352.56,233.28 c -0.37,0.14 -0.74,0.27 -1.13,0.39 -0.2,0.07 -0.42,0.12 -0.64,0.18 l -0.6,0.17 -0.67,0.14 c -0.2,0.04 -0.41,0.1 -0.62,0.13 -0.46,0.08 -0.93,0.15 -1.4,0.2 v 1.63 c 0.47,-0.05 0.93,-0.12 1.4,-0.2 l 0.06,-0.01 0.56,-0.12 0.66,-0.14 0.61,-0.17 c 0.21,-0.06 0.43,-0.11 0.64,-0.18 l 0.08,-0.02 1.04,-0.37 2.16,1.24 3.7,-2.15 0.01,-1.63 -3.7,2.15 z"
     fill="url(#N)"
     id="path1006"
     style="fill:url(#N)" />
  <path
     d="m 342.24,234.49 a 22.26,22.26 0 0 1 -3.1,-0.58 l -0.63,-0.18 -0.27,-0.08 c -0.36,-0.12 -0.72,-0.24 -1.07,-0.38 l -2.15,1.25 -3.73,-2.15 V 234 l 3.73,2.15 2.15,-1.25 a 17.9,17.9 0 0 0 1.34,0.46 l 0.28,0.09 0.35,0.09 0.82,0.2 0.26,0.06 0.34,0.06 0.7,0.12 0.32,0.06 0.66,0.08 v 1.76 h 5.26 v -1.63 h -5.25 v -1.76 z"
     fill="url(#O)"
     id="path1008"
     style="fill:url(#O)" />
  <path
     d="m 354.72,234.52 -2.16,-1.25 a 20,20 0 0 1 -5.06,1.22 v 1.76 h -5.25 v -1.76 c -1.8,-0.2 -3.52,-0.6 -5.08,-1.22 l -2.15,1.25 -3.73,-2.15 2.15,-1.25 a 6.77,6.77 0 0 1 -2.11,-2.93 h -3.05 l -0.02,-3.04 h 3.05 a 6.72,6.72 0 0 1 2.08,-2.93 l -2.16,-1.25 3.7,-2.15 2.17,1.25 c 1.55,-0.61 3.27,-1.02 5.06,-1.22 l -0.01,-1.76 h 5.25 l 0.01,1.76 c 1.79,0.2 3.51,0.6 5.07,1.22 l 2.15,-1.25 3.73,2.15 -2.15,1.25 c 1.06,0.9 1.77,1.9 2.12,2.93 h 3.04 l 0.02,3.04 h -3.04 a 6.67,6.67 0 0 1 -2.09,2.93 l 2.16,1.25 z m -14.75,-5.03 c 2.7,1.56 7.06,1.56 9.74,0 2.68,-1.56 2.67,-4.08 -0.03,-5.64 -2.7,-1.56 -7.06,-1.56 -9.74,0 -2.68,1.56 -2.67,4.08 0.03,5.64 z"
     fill="url(#P)"
     id="path1010"
     style="fill:url(#P)" />
  <path
     d="m 318.92,233.55 -0.02,-1.37 v 2.64 l 0.01,-1.27 z"
     fill="url(#Q)"
     id="path1012"
     style="fill:url(#Q)" />
  <path
     d="m 331.49,235.2 -1.67,0.96 v 1.27 l 1.66,-0.97 v -1.26 z"
     fill="url(#R)"
     id="path1014"
     style="fill:url(#R)" />
  <path
     d="m 312.11,236.16 -1.68,-0.96 v 1.26 l 1.68,0.97 z"
     fill="url(#S)"
     id="path1016"
     style="fill:url(#S)" />
  <path
     d="m 315.67,240.55 c 0,-0.05 0.02,-0.1 0.03,-0.14 l 0.05,-0.16 0.05,-0.13 0.08,-0.17 0.07,-0.12 a 2.52,2.52 0 0 1 0.44,-0.53 l 0.09,-0.09 0.16,-0.13 0.15,-0.12 0.2,-0.13 0.2,-0.13 c 0.16,-0.1 0.33,-0.18 0.5,-0.26 l 0.15,-0.06 0.42,-0.16 0.16,-0.05 0.27,-0.08 0.21,-0.06 0.3,-0.06 0.2,-0.04 c 0.2,-0.04 0.4,-0.07 0.61,-0.09 l 0.19,-0.01 0.36,-0.03 h 0.77 a 8.05,8.05 0 0 1 1.86,0.28 l 0.18,0.05 c 0.2,0.05 0.4,0.12 0.58,0.19 l 0.27,0.11 0.14,0.06 0.39,0.2 c 1.05,0.62 1.58,1.41 1.58,2.2 v -1.26 c 0,-0.8 -0.52,-1.59 -1.58,-2.2 a 5.59,5.59 0 0 0 -0.39,-0.2 l -0.14,-0.06 -0.24,-0.1 -0.03,-0.02 a 7.44,7.44 0 0 0 -0.57,-0.2 h -0.05 l -0.13,-0.04 a 7.31,7.31 0 0 0 -0.34,-0.08 l -0.09,-0.02 -0.13,-0.02 a 6.7,6.7 0 0 0 -0.28,-0.06 l -0.12,-0.01 -0.12,-0.02 a 6.05,6.05 0 0 0 -0.27,-0.03 l -0.13,-0.01 h -0.12 l -0.27,-0.02 -0.13,-0.01 h -0.64 l -0.36,0.03 -0.14,0.01 h -0.05 l -0.6,0.1 h -0.04 l -0.17,0.03 -0.3,0.07 -0.2,0.05 -0.28,0.08 -0.06,0.02 -0.1,0.03 a 7,7 0 0 0 -1.07,0.48 l -0.07,0.04 -0.13,0.1 a 3.6,3.6 0 0 0 -0.2,0.12 l -0.15,0.12 -0.16,0.14 -0.03,0.02 -0.06,0.06 c -0.08,0.08 -0.16,0.16 -0.22,0.25 l -0.06,0.05 c 0,0.02 -0.02,0.04 -0.03,0.05 l -0.13,0.19 -0.05,0.08 -0.02,0.04 -0.08,0.17 -0.04,0.1 -0.01,0.03 -0.05,0.15 c 0,0.04 -0.02,0.08 -0.03,0.11 v 0.03 l -0.02,0.17 -0.01,0.1 v 1.32 -0.15 c 0.01,-0.06 0.01,-0.12 0.03,-0.17 z"
     fill="url(#T)"
     id="path1018"
     style="fill:url(#T)" />
  <path
     d="m 331.48,240.8 a 3.9,3.9 0 0 1 -0.49,1 l -0.08,0.12 -0.13,0.18 -0.1,0.12 c -0.08,0.1 -0.17,0.22 -0.27,0.32 l -0.04,0.05 a 7.18,7.18 0 0 1 -0.51,0.48 v 1.27 l 0.19,-0.18 0.04,-0.03 0.27,-0.28 0.05,-0.04 a 6.34,6.34 0 0 0 0.3,-0.36 l 0.06,-0.08 a 4.24,4.24 0 0 0 0.33,-0.49 l 0.03,-0.06 0.05,-0.08 0.07,-0.15 a 3.16,3.16 0 0 0 0.14,-0.3 l 0.03,-0.07 0.05,-0.16 h 2.36 v -1.26 z"
     fill="url(#U)"
     id="path1020"
     style="fill:url(#U)" />
  <path
     d="m 312.14,244.34 v -1.27 a 5.27,5.27 0 0 1 -1.63,-2.27 h -2.37 v 1.26 h 2.36 c 0.27,0.8 0.82,1.58 1.64,2.28 z"
     fill="url(#V)"
     id="path1022"
     style="fill:url(#V)" />
  <path
     d="m 326.98,244.75 -0.87,0.3 -0.5,0.14 c -0.15,0.05 -0.3,0.1 -0.47,0.13 l -0.51,0.11 -0.49,0.1 c -0.35,0.06 -0.72,0.12 -1.08,0.16 v 1.26 l 1.08,-0.15 0.05,-0.01 0.44,-0.1 0.51,-0.1 0.47,-0.13 0.5,-0.14 0.06,-0.02 0.81,-0.29 1.68,0.97 2.87,-1.67 v -1.27 l -2.87,1.67 z"
     fill="url(#W)"
     id="path1024"
     style="fill:url(#W)" />
  <path
     d="m 318.98,245.68 c -0.26,-0.02 -0.5,-0.06 -0.76,-0.1 a 16,16 0 0 1 -1.64,-0.35 l -0.5,-0.13 a 13.5,13.5 0 0 1 -1.04,-0.36 l -1.67,0.97 -2.89,-1.67 v 1.27 l 2.9,1.67 1.66,-0.97 a 13.45,13.45 0 0 0 1.04,0.35 l 0.22,0.07 0.27,0.07 0.64,0.15 0.2,0.05 0.26,0.05 0.54,0.1 c 0.09,0 0.17,0.02 0.25,0.03 l 0.51,0.07 0.01,1.37 h 4.08 v -1.27 h -4.07 z"
     fill="url(#X)"
     id="path1026"
     style="fill:url(#X)" />
  <path
     d="m 328.66,245.71 -1.68,-0.97 c -1.2,0.48 -2.54,0.8 -3.92,0.94 v 1.37 h -4.07 l -0.01,-1.37 a 15.64,15.64 0 0 1 -3.94,-0.94 l -1.67,0.97 -2.9,-1.67 1.68,-0.97 a 5.25,5.25 0 0 1 -1.64,-2.27 h -2.37 l -0.01,-2.36 h 2.36 c 0.26,-0.8 0.8,-1.58 1.62,-2.28 l -1.68,-0.97 2.88,-1.66 1.67,0.96 c 1.21,-0.47 2.55,-0.79 3.93,-0.94 v -1.37 h 4.07 v 1.37 c 1.4,0.15 2.73,0.47 3.95,0.94 l 1.66,-0.96 2.9,1.66 -1.67,0.97 a 5.3,5.3 0 0 1 1.64,2.28 h 2.36 l 0.02,2.36 h -2.37 c -0.26,0.8 -0.8,1.57 -1.61,2.27 l 1.68,0.97 z m -11.45,-3.9 a 8.34,8.34 0 0 0 7.56,0 c 2.09,-1.21 2.08,-3.17 -0.02,-4.38 a 8.34,8.34 0 0 0 -7.56,0 c -2.08,1.21 -2.07,3.17 0.02,4.38 z"
     fill="url(#Y)"
     id="path1028"
     style="fill:url(#Y)" />
  <path
     d="m 297.18,247.7 v -1.37 l -0.01,1.27 v 1.37 z"
     fill="url(#Z)"
     id="path1030"
     style="fill:url(#Z)" />
  <path
     d="m 309.76,249.35 -1.67,0.96 v 1.27 l 1.66,-0.97 v -1.26 z"
     fill="url(#aa)"
     id="path1032"
     style="fill:url(#aa)" />
  <path
     d="m 290.38,250.31 -1.68,-0.96 v 1.26 l 1.68,0.97 v -1.26 z"
     fill="url(#ab)"
     id="path1034"
     style="fill:url(#ab)" />
  <path
     d="m 293.93,254.7 0.04,-0.14 0.05,-0.16 0.05,-0.13 0.08,-0.17 0.07,-0.12 0.13,-0.18 0.08,-0.1 a 3,3 0 0 1 0.23,-0.25 l 0.09,-0.09 0.16,-0.13 0.15,-0.12 0.2,-0.13 0.2,-0.13 c 0.16,-0.1 0.33,-0.18 0.5,-0.26 l 0.15,-0.06 0.42,-0.16 0.16,-0.05 0.27,-0.08 0.21,-0.06 0.3,-0.06 0.2,-0.04 0.6,-0.09 0.2,-0.01 a 8.8,8.8 0 0 1 1.92,0.04 l 0.23,0.03 a 12.93,12.93 0 0 1 0.84,0.18 l 0.19,0.05 c 0.2,0.05 0.38,0.12 0.57,0.19 l 0.27,0.11 0.14,0.06 0.39,0.2 c 1.05,0.62 1.58,1.41 1.58,2.21 v -1.26 c 0,-0.8 -0.52,-1.6 -1.58,-2.2 a 5.79,5.79 0 0 0 -0.39,-0.21 l -0.14,-0.06 -0.24,-0.1 -0.03,-0.02 a 7.32,7.32 0 0 0 -0.57,-0.19 l -0.05,-0.02 -0.13,-0.03 a 7.03,7.03 0 0 0 -0.34,-0.08 l -0.09,-0.02 -0.13,-0.03 a 8.8,8.8 0 0 0 -0.28,-0.04 l -0.12,-0.02 -0.12,-0.02 a 12.1,12.1 0 0 0 -0.27,-0.03 l -0.13,-0.01 h -0.12 l -0.27,-0.02 -0.13,-0.01 h -0.64 l -0.36,0.03 -0.14,0.01 h -0.05 l -0.6,0.1 h -0.04 c -0.06,0 -0.11,0.02 -0.17,0.03 l -0.3,0.07 -0.2,0.05 -0.28,0.08 -0.06,0.02 -0.1,0.04 -0.42,0.15 -0.15,0.07 a 5.4,5.4 0 0 0 -0.5,0.25 l -0.07,0.04 -0.13,0.1 -0.2,0.12 -0.15,0.12 -0.16,0.14 -0.03,0.02 -0.06,0.06 a 3.2,3.2 0 0 0 -0.23,0.25 l -0.05,0.05 -0.03,0.05 -0.13,0.19 -0.05,0.08 -0.02,0.04 -0.08,0.16 -0.04,0.1 -0.01,0.03 -0.05,0.16 c 0,0.04 -0.02,0.08 -0.03,0.11 v 0.03 l -0.02,0.17 -0.02,0.1 v 1.32 l 0.01,-0.16 z"
     fill="url(#ac)"
     id="path1036"
     style="fill:url(#ac)" />
  <path
     d="m 309.75,254.95 a 3.49,3.49 0 0 1 -0.3,0.68 3.83,3.83 0 0 1 -0.19,0.31 l -0.08,0.13 a 5.41,5.41 0 0 1 -0.5,0.63 l -0.04,0.04 a 5.51,5.51 0 0 1 -0.51,0.49 v 1.26 l 0.19,-0.17 0.04,-0.04 c 0.1,-0.1 0.19,-0.18 0.27,-0.28 l 0.05,-0.04 0.28,-0.32 0.02,-0.03 0.06,-0.1 a 7.35,7.35 0 0 0 0.33,-0.48 c 0,-0.02 0.02,-0.03 0.03,-0.05 l 0.05,-0.09 a 5.47,5.47 0 0 0 0.14,-0.3 l 0.07,-0.15 0.03,-0.07 0.05,-0.15 h 2.37 v -1.27 z"
     fill="url(#ad)"
     id="path1038"
     style="fill:url(#ad)" />
  <path
     d="m 290.42,258.49 v -1.26 a 5.25,5.25 0 0 1 -1.64,-2.28 h -2.37 v 1.27 h 2.36 c 0.27,0.8 0.82,1.57 1.64,2.27 z"
     fill="url(#ae)"
     id="path1040"
     style="fill:url(#ae)" />
  <path
     d="m 305.26,258.89 c -0.29,0.12 -0.58,0.22 -0.88,0.31 l -0.5,0.14 c -0.15,0.04 -0.3,0.1 -0.47,0.13 l -0.51,0.11 -0.49,0.1 c -0.35,0.06 -0.72,0.12 -1.08,0.16 v 1.26 c 0.36,-0.04 0.72,-0.1 1.08,-0.16 h 0.05 l 0.44,-0.1 0.51,-0.1 c 0.16,-0.04 0.32,-0.1 0.47,-0.13 l 0.5,-0.14 0.06,-0.02 0.81,-0.29 1.68,0.97 2.87,-1.67 v -1.27 l -2.87,1.67 z"
     fill="url(#af)"
     id="path1042"
     style="fill:url(#af)" />
  <path
     d="m 297.25,259.83 c -0.26,-0.02 -0.5,-0.06 -0.76,-0.1 a 13.83,13.83 0 0 1 -1.64,-0.35 l -0.5,-0.13 a 14.12,14.12 0 0 1 -1.04,-0.36 l -1.66,0.97 -2.9,-1.67 v 1.27 l 2.9,1.67 1.66,-0.97 a 14.19,14.19 0 0 0 1.04,0.35 l 0.22,0.07 0.27,0.07 0.64,0.15 0.2,0.06 0.26,0.04 0.55,0.1 c 0.08,0 0.16,0.03 0.24,0.04 l 0.51,0.06 0.01,1.37 h 4.08 v -1.27 h -4.07 l -0.01,-1.36 z"
     fill="url(#ag)"
     id="path1044"
     style="fill:url(#ag)" />
  <path
     d="m 306.93,259.86 -1.67,-0.97 c -1.21,0.48 -2.55,0.8 -3.93,0.95 v 1.36 h -4.07 l -0.01,-1.36 a 15.64,15.64 0 0 1 -3.94,-0.95 l -1.67,0.97 -2.89,-1.67 1.67,-0.96 a 5.27,5.27 0 0 1 -1.64,-2.28 h -2.37 l -0.01,-2.36 h 2.36 c 0.27,-0.8 0.8,-1.58 1.62,-2.28 l -1.68,-0.96 2.88,-1.67 1.67,0.96 a 15.6,15.6 0 0 1 3.93,-0.94 v -1.37 h 4.07 v 1.37 c 1.4,0.16 2.73,0.47 3.95,0.94 l 1.66,-0.96 2.9,1.67 -1.67,0.96 a 5.3,5.3 0 0 1 1.64,2.28 h 2.37 v 2.36 h -2.35 c -0.27,0.8 -0.8,1.58 -1.62,2.28 l 1.68,0.96 z m -11.44,-3.9 a 8.34,8.34 0 0 0 7.56,0 c 2.08,-1.21 2.07,-3.17 -0.03,-4.38 a 8.35,8.35 0 0 0 -7.56,0 c -2.08,1.21 -2.07,3.17 0.02,4.38 z"
     fill="url(#ah)"
     id="path1046"
     style="fill:url(#ah)" />
  <path
     d="m 284.32,250.02 v -1.37 2.64 z"
     fill="url(#ai)"
     id="path1048"
     style="fill:url(#ai)" />
  <path
     d="m 296.9,251.66 -1.66,0.97 v 1.27 l 1.66,-0.97 z"
     fill="url(#aj)"
     id="path1050"
     style="fill:url(#aj)" />
  <path
     d="m 277.52,252.63 -1.67,-0.97 v 1.27 l 1.67,0.97 z"
     fill="url(#ak)"
     id="path1052"
     style="fill:url(#ak)" />
  <path
     d="m 281.08,257.01 0.04,-0.13 0.04,-0.16 0.06,-0.13 0.07,-0.17 0.08,-0.12 0.12,-0.18 0.09,-0.11 a 3,3 0 0 1 0.23,-0.24 l 0.08,-0.1 0.17,-0.13 0.15,-0.12 0.2,-0.12 a 5.66,5.66 0 0 1 0.7,-0.38 l 0.15,-0.07 0.42,-0.16 0.15,-0.06 0.28,-0.07 0.21,-0.06 0.3,-0.06 0.2,-0.04 0.6,-0.09 0.2,-0.01 0.36,-0.03 h 0.53 a 9.88,9.88 0 0 1 1.54,0.15 l 0.23,0.04 0.33,0.09 0.18,0.04 a 7.03,7.03 0 0 1 0.84,0.31 l 0.14,0.06 0.4,0.2 c 1.05,0.61 1.57,1.41 1.57,2.2 v -1.26 c 0,-0.8 -0.52,-1.6 -1.57,-2.2 a 5.4,5.4 0 0 0 -0.4,-0.2 l -0.13,-0.06 c -0.08,-0.04 -0.16,-0.08 -0.24,-0.1 l -0.03,-0.02 a 7.44,7.44 0 0 0 -0.58,-0.2 h -0.04 l -0.14,-0.04 a 8.52,8.52 0 0 0 -0.33,-0.08 l -0.09,-0.02 -0.13,-0.03 a 8.8,8.8 0 0 0 -0.29,-0.05 l -0.11,-0.02 -0.13,-0.01 a 7.84,7.84 0 0 0 -0.26,-0.03 l -0.13,-0.01 -0.12,-0.01 -0.27,-0.01 -0.14,-0.01 h -0.64 l -0.35,0.03 -0.15,0.01 h -0.04 l -0.61,0.1 h -0.03 c -0.06,0 -0.12,0.02 -0.17,0.03 l -0.3,0.07 -0.2,0.05 a 8,8 0 0 0 -0.28,0.08 l -0.06,0.02 c -0.04,0 -0.07,0.02 -0.1,0.03 l -0.42,0.16 -0.15,0.07 c -0.18,0.08 -0.35,0.16 -0.5,0.25 l -0.07,0.04 -0.14,0.1 a 4.3,4.3 0 0 0 -0.2,0.12 l -0.14,0.12 -0.17,0.13 -0.03,0.03 -0.05,0.06 c -0.09,0.08 -0.16,0.16 -0.23,0.25 l -0.05,0.05 -0.04,0.05 -0.12,0.19 -0.05,0.08 -0.02,0.04 -0.08,0.16 -0.05,0.1 v 0.03 c -0.03,0.06 -0.04,0.11 -0.05,0.16 -0.01,0.04 -0.03,0.07 -0.03,0.11 v 0.03 l -0.03,0.17 -0.01,0.1 v 1.32 -0.16 c 0.02,-0.05 0.02,-0.1 0.03,-0.17 z"
     fill="url(#al)"
     id="path1054"
     style="fill:url(#al)" />
  <path
     d="m 296.89,257.27 a 3.3,3.3 0 0 1 -0.3,0.68 3.83,3.83 0 0 1 -0.18,0.31 l -0.08,0.13 a 5.41,5.41 0 0 1 -0.5,0.62 l -0.05,0.05 a 5.51,5.51 0 0 1 -0.5,0.48 v 1.27 l 0.19,-0.18 0.04,-0.03 a 5.93,5.93 0 0 0 0.6,-0.65 l 0.01,-0.03 0.07,-0.09 0.13,-0.17 a 3.56,3.56 0 0 0 0.2,-0.3 c 0,-0.03 0.02,-0.05 0.03,-0.07 l 0.04,-0.08 0.08,-0.15 a 2.7,2.7 0 0 0 0.13,-0.3 l 0.03,-0.07 0.06,-0.16 h 2.36 v -1.26 z"
     fill="url(#am)"
     id="path1056"
     style="fill:url(#am)" />
  <path
     d="m 277.56,260.81 v -1.27 a 5.26,5.26 0 0 1 -1.64,-2.27 h -2.36 v 1.26 h 2.36 c 0.27,0.8 0.82,1.58 1.64,2.28 z"
     fill="url(#an)"
     id="path1058"
     style="fill:url(#an)" />
  <path
     d="m 292.4,261.21 c -0.28,0.11 -0.57,0.21 -0.87,0.3 -0.16,0.06 -0.33,0.1 -0.5,0.15 l -0.47,0.13 -0.52,0.1 c -0.16,0.04 -0.32,0.08 -0.48,0.1 -0.36,0.07 -0.72,0.12 -1.08,0.17 v 1.26 c 0.36,-0.04 0.72,-0.1 1.08,-0.16 h 0.05 l 0.43,-0.1 0.52,-0.1 0.47,-0.14 0.5,-0.14 0.06,-0.01 c 0.27,-0.1 0.54,-0.19 0.8,-0.3 l 1.69,0.97 2.87,-1.66 v -1.27 l -2.87,1.67 z"
     fill="url(#ao)"
     id="path1060"
     style="fill:url(#ao)" />
  <path
     d="m 284.4,262.15 -0.76,-0.1 a 13.83,13.83 0 0 1 -1.65,-0.35 l -0.49,-0.13 a 14.12,14.12 0 0 1 -1.04,-0.36 l -1.67,0.97 -2.9,-1.67 v 1.27 l 2.9,1.66 1.67,-0.96 a 14.19,14.19 0 0 0 1.04,0.35 l 0.22,0.07 0.27,0.07 0.63,0.15 0.2,0.05 0.27,0.05 0.54,0.09 0.25,0.04 0.51,0.07 0.01,1.37 h 4.08 v -1.27 h -4.08 z"
     fill="url(#ap)"
     id="path1062"
     style="fill:url(#ap)" />
  <path
     d="m 294.08,262.18 -1.68,-0.97 c -1.2,0.48 -2.54,0.8 -3.93,0.95 l 0.01,1.36 h -4.08 v -1.36 a 15.64,15.64 0 0 1 -3.94,-0.95 l -1.67,0.97 -2.9,-1.67 1.67,-0.97 a 5.27,5.27 0 0 1 -1.64,-2.27 h -2.36 l -0.01,-2.36 h 2.36 c 0.26,-0.8 0.8,-1.58 1.62,-2.28 l -1.68,-0.96 2.87,-1.67 1.68,0.96 c 1.2,-0.47 2.54,-0.78 3.93,-0.94 l -0.01,-1.37 h 4.08 v 1.37 c 1.39,0.16 2.73,0.47 3.94,0.94 l 1.67,-0.96 2.9,1.67 -1.67,0.96 c 0.82,0.7 1.37,1.48 1.64,2.28 h 2.36 l 0.01,2.36 h -2.36 c -0.26,0.8 -0.8,1.57 -1.61,2.27 l 1.67,0.97 z m -11.45,-3.9 a 8.33,8.33 0 0 0 7.56,0 c 2.08,-1.21 2.07,-3.17 -0.02,-4.38 a 8.34,8.34 0 0 0 -7.56,0 c -2.08,1.21 -2.07,3.17 0.02,4.38 z"
     fill="url(#aq)"
     id="path1064"
     style="fill:url(#aq)" />
  <path
     d="m 379.14,181.01 c 0,-8.82 -7.24,-15.56 -16.17,-15.56 a 16.07,16.07 0 0 0 -16.17,15.98 c 0,8.82 7.24,15.97 16.17,15.97 8.93,0 16.17,-7.56 16.17,-16.38 z"
     fill="url(#ar)"
     id="path1066"
     style="fill:url(#ar)" />
  <path
     d="m 387.15,151.68 c 0,-4.37 -3.58,-7.7 -8,-7.7 -4.43,0 -8.01,3.54 -8.01,7.9 0,4.37 3.58,7.9 8,7.9 4.43,0 8.01,-3.73 8.01,-8.1 z"
     fill="url(#as)"
     id="path1068"
     style="fill:url(#as)" />
  <defs
     id="defs1475">
    <linearGradient
       id="a"
       x1="202.00999"
       y1="230.2"
       x2="288.29001"
       y2="230.2"
       gradientUnits="userSpaceOnUse">
      <stop
         offset=".06"
         stop-color="#28A8E0"
         id="stop1070" />
      <stop
         offset="1"
         stop-color="#29ABE2"
         stop-opacity="0"
         id="stop1072" />
    </linearGradient>
    <linearGradient
       id="b"
       x1="298.26001"
       y1="193.03999"
       x2="384.54999"
       y2="193.03999"
       gradientUnits="userSpaceOnUse">
      <stop
         offset=".06"
         stop-color="#28A8E0"
         id="stop1075" />
      <stop
         offset="1"
         stop-color="#29ABE2"
         stop-opacity="0"
         id="stop1077" />
    </linearGradient>
    <linearGradient
       id="c"
       x1="305.54001"
       y1="144.46001"
       x2="391.82999"
       y2="144.46001"
       gradientUnits="userSpaceOnUse">
      <stop
         offset=".06"
         stop-color="#28A8E0"
         id="stop1080" />
      <stop
         offset="1"
         stop-color="#29ABE2"
         stop-opacity="0"
         id="stop1082" />
    </linearGradient>
    <linearGradient
       id="d"
       x1="340.82001"
       y1="384.82999"
       x2="542.28998"
       y2="384.82999"
       gradientUnits="userSpaceOnUse">
      <stop
         offset=".06"
         stop-color="#28A8E0"
         id="stop1085" />
      <stop
         offset="1"
         stop-color="#29ABE2"
         stop-opacity="0"
         id="stop1087" />
    </linearGradient>
    <linearGradient
       id="e"
       x1="224.88"
       y1="345.19"
       x2="426.34"
       y2="345.19"
       gradientUnits="userSpaceOnUse">
      <stop
         offset=".06"
         stop-color="#28A8E0"
         id="stop1090" />
      <stop
         offset="1"
         stop-color="#29ABE2"
         stop-opacity="0"
         id="stop1092" />
    </linearGradient>
    <linearGradient
       id="f"
       x1="419.97"
       y1="202.19"
       x2="570.31"
       y2="202.19"
       gradientUnits="userSpaceOnUse"
       gradientTransform="translate(-201.78,-105.57)">
      <stop
         stop-color="#21409A"
         id="stop1095" />
      <stop
         offset="1"
         stop-color="#29ABE2"
         stop-opacity="0"
         id="stop1097" />
    </linearGradient>
    <linearGradient
       id="g"
       x1="416.95001"
       y1="204.69"
       x2="564.75"
       y2="204.69"
       gradientUnits="userSpaceOnUse"
       gradientTransform="translate(-201.78,-105.57)">
      <stop
         offset=".06"
         stop-color="#28A8E0"
         id="stop1100" />
      <stop
         offset="1"
         stop-color="#29ABE2"
         stop-opacity="0"
         id="stop1102" />
    </linearGradient>
    <linearGradient
       id="i"
       x1="426.54999"
       y1="147.67999"
       x2="456.10999"
       y2="147.67999"
       gradientUnits="userSpaceOnUse"
       gradientTransform="translate(-201.78,-105.57)">
      <stop
         stop-color="#BD8AAE"
         id="stop1105" />
      <stop
         offset="1"
         stop-color="#2484C6"
         stop-opacity="0"
         id="stop1107" />
    </linearGradient>
    <linearGradient
       id="j"
       x1="459.94"
       y1="230.00999"
       x2="548.62"
       y2="230.00999"
       gradientUnits="userSpaceOnUse"
       gradientTransform="translate(-201.78,-105.57)">
      <stop
         stop-color="#21409A"
         id="stop1110" />
      <stop
         offset="1"
         stop-color="#29ABE2"
         stop-opacity="0"
         id="stop1112" />
    </linearGradient>
    <linearGradient
       id="k"
       x1="497.13"
       y1="228.64999"
       x2="504.73999"
       y2="228.64999"
       gradientUnits="userSpaceOnUse"
       gradientTransform="translate(-201.78,-105.57)">
      <stop
         stop-color="#BD8AAE"
         id="stop1115" />
      <stop
         offset="1"
         stop-color="#2484C6"
         stop-opacity="0"
         id="stop1117" />
    </linearGradient>
    <linearGradient
       id="l"
       x1="497.10999"
       y1="239.95"
       x2="522.92999"
       y2="239.95"
       gradientUnits="userSpaceOnUse"
       gradientTransform="translate(-201.78,-105.57)">
      <stop
         stop-color="#BD8AAE"
         id="stop1120" />
      <stop
         offset="1"
         stop-color="#2484C6"
         stop-opacity="0"
         id="stop1122" />
    </linearGradient>
    <linearGradient
       id="m"
       x1="497.07001"
       y1="249.22"
       x2="513.02002"
       y2="249.22"
       gradientUnits="userSpaceOnUse"
       gradientTransform="translate(-201.78,-105.57)">
      <stop
         stop-color="#BD8AAE"
         id="stop1125" />
      <stop
         offset="1"
         stop-color="#2484C6"
         stop-opacity="0"
         id="stop1127" />
    </linearGradient>
    <linearGradient
       id="n"
       x1="439.73001"
       y1="212.28"
       x2="442.26001"
       y2="212.28"
       gradientUnits="userSpaceOnUse"
       gradientTransform="translate(-201.78,-105.57)">
      <stop
         stop-color="#6B385F"
         id="stop1130" />
      <stop
         offset=".42"
         stop-color="#6F3B62"
         stop-opacity=".73"
         id="stop1132" />
      <stop
         offset=".52"
         stop-color="#764268"
         stop-opacity=".6"
         id="stop1134" />
      <stop
         offset=".69"
         stop-color="#8C567A"
         stop-opacity=".39"
         id="stop1136" />
      <stop
         offset=".91"
         stop-color="#B5799B"
         stop-opacity=".11"
         id="stop1138" />
      <stop
         offset="1"
         stop-color="#CC8DAE"
         stop-opacity="0"
         id="stop1140" />
    </linearGradient>
    <linearGradient
       id="o"
       x1="433.88"
       y1="196.87"
       x2="444.85999"
       y2="196.87"
       gradientUnits="userSpaceOnUse"
       gradientTransform="translate(-201.78,-105.57)">
      <stop
         stop-color="#6B385F"
         id="stop1143" />
      <stop
         offset=".42"
         stop-color="#6F3B62"
         stop-opacity=".73"
         id="stop1145" />
      <stop
         offset=".52"
         stop-color="#764268"
         stop-opacity=".6"
         id="stop1147" />
      <stop
         offset=".69"
         stop-color="#8C567A"
         stop-opacity=".39"
         id="stop1149" />
      <stop
         offset=".91"
         stop-color="#B5799B"
         stop-opacity=".11"
         id="stop1151" />
      <stop
         offset="1"
         stop-color="#CC8DAE"
         stop-opacity="0"
         id="stop1153" />
    </linearGradient>
    <linearGradient
       id="p"
       x1="425.95001"
       y1="205.39"
       x2="442.37"
       y2="205.39"
       gradientUnits="userSpaceOnUse"
       gradientTransform="translate(-201.78,-105.57)">
      <stop
         stop-color="#6B385F"
         id="stop1156" />
      <stop
         offset=".42"
         stop-color="#6F3B62"
         stop-opacity=".73"
         id="stop1158" />
      <stop
         offset=".52"
         stop-color="#764268"
         stop-opacity=".6"
         id="stop1160" />
      <stop
         offset=".69"
         stop-color="#8C567A"
         stop-opacity=".39"
         id="stop1162" />
      <stop
         offset=".91"
         stop-color="#B5799B"
         stop-opacity=".11"
         id="stop1164" />
      <stop
         offset="1"
         stop-color="#CC8DAE"
         stop-opacity="0"
         id="stop1166" />
    </linearGradient>
    <linearGradient
       id="q"
       x1="473.57001"
       y1="301.13"
       x2="560.31"
       y2="301.13"
       gradientUnits="userSpaceOnUse"
       gradientTransform="translate(-201.78,-105.57)">
      <stop
         offset=".06"
         stop-color="#28A8E0"
         id="stop1169" />
      <stop
         offset="1"
         stop-color="#29ABE2"
         stop-opacity="0"
         id="stop1171" />
    </linearGradient>
    <linearGradient
       id="r"
       x1="354.03"
       y1="176.33"
       x2="408.07001"
       y2="176.33"
       gradientUnits="userSpaceOnUse"
       gradientTransform="translate(-201.78,-105.57)">
      <stop
         offset=".06"
         stop-color="#28A8E0"
         id="stop1174" />
      <stop
         offset="1"
         stop-color="#29ABE2"
         stop-opacity="0"
         id="stop1176" />
    </linearGradient>
    <linearGradient
       id="s"
       x1="407.76999"
       y1="180.61"
       x2="385.12"
       y2="180.61"
       gradientUnits="userSpaceOnUse"
       gradientTransform="translate(-201.78,-105.57)">
      <stop
         offset=".42"
         stop-color="#fff"
         id="stop1179" />
      <stop
         offset="1"
         stop-color="#2484C6"
         stop-opacity="0"
         id="stop1181" />
    </linearGradient>
    <linearGradient
       id="t"
       x1="357.67999"
       y1="205.07001"
       x2="366.67001"
       y2="209.09"
       gradientUnits="userSpaceOnUse"
       gradientTransform="translate(-201.78,-105.57)">
      <stop
         offset=".24"
         stop-color="#21409A"
         id="stop1184" />
      <stop
         offset=".66"
         stop-color="#215DAB"
         stop-opacity=".55"
         id="stop1186" />
      <stop
         offset="1"
         stop-color="#29ABE2"
         stop-opacity="0"
         id="stop1188" />
    </linearGradient>
    <linearGradient
       id="u"
       x1="398.89999"
       y1="384.26999"
       x2="438.72"
       y2="344.42001"
       gradientUnits="userSpaceOnUse"
       gradientTransform="translate(-201.78,-105.57)">
      <stop
         offset=".59"
         stop-color="#2B618E"
         id="stop1191" />
      <stop
         offset="1"
         stop-color="#29ABE2"
         stop-opacity="0"
         id="stop1193" />
    </linearGradient>
    <linearGradient
       id="v"
       x1="427.34"
       y1="366.89999"
       x2="440.04001"
       y2="366.89999"
       gradientUnits="userSpaceOnUse"
       gradientTransform="translate(-201.78,-105.57)">
      <stop
         stop-color="#BD8AAE"
         id="stop1196" />
      <stop
         offset="1"
         stop-color="#2484C6"
         stop-opacity="0"
         id="stop1198" />
    </linearGradient>
    <linearGradient
       id="w"
       x1="394.88"
       y1="297.45001"
       x2="442.13"
       y2="297.45001"
       gradientUnits="userSpaceOnUse"
       gradientTransform="translate(-201.78,-105.57)">
      <stop
         stop-color="#BD8AAE"
         id="stop1201" />
      <stop
         offset="1"
         stop-color="#2484C6"
         stop-opacity="0"
         id="stop1203" />
    </linearGradient>
    <linearGradient
       id="x"
       x1="394.88"
       y1="297.79999"
       x2="417.01999"
       y2="297.79999"
       gradientUnits="userSpaceOnUse"
       gradientTransform="translate(-201.78,-105.57)">
      <stop
         stop-color="#A7A9AC"
         id="stop1206" />
      <stop
         offset="1"
         stop-color="#2484C6"
         stop-opacity="0"
         id="stop1208" />
    </linearGradient>
    <linearGradient
       id="y"
       x1="405.14999"
       y1="275.41"
       x2="439.31"
       y2="275.41"
       gradientUnits="userSpaceOnUse"
       gradientTransform="translate(-201.78,-105.57)">
      <stop
         stop-color="#BD8AAE"
         id="stop1211" />
      <stop
         offset="1"
         stop-color="#2484C6"
         stop-opacity="0"
         id="stop1213" />
    </linearGradient>
    <linearGradient
       id="z"
       x1="332.07999"
       y1="307.54001"
       x2="351.17999"
       y2="307.54001"
       gradientUnits="userSpaceOnUse"
       gradientTransform="translate(-201.78,-105.57)">
      <stop
         stop-color="#BD8AAE"
         id="stop1216" />
      <stop
         offset="1"
         stop-color="#2484C6"
         stop-opacity="0"
         id="stop1218" />
    </linearGradient>
    <linearGradient
       id="A"
       x1="313.72"
       y1="241.62"
       x2="336.28"
       y2="241.62"
       gradientUnits="userSpaceOnUse"
       gradientTransform="translate(-201.78,-105.57)">
      <stop
         offset=".54"
         stop-color="#21409A"
         id="stop1221" />
      <stop
         offset=".81"
         stop-color="#2058A8"
         stop-opacity=".36"
         id="stop1223" />
      <stop
         offset="1"
         stop-color="#29ABE2"
         stop-opacity="0"
         id="stop1225" />
    </linearGradient>
    <linearGradient
       id="C"
       x1="335.81"
       y1="242.16"
       x2="371.16"
       y2="242.16"
       gradientUnits="userSpaceOnUse"
       gradientTransform="translate(-201.78,-105.57)">
      <stop
         offset=".24"
         stop-color="#21409A"
         id="stop1228" />
      <stop
         offset=".66"
         stop-color="#215DAB"
         stop-opacity=".55"
         id="stop1230" />
      <stop
         offset="1"
         stop-color="#29ABE2"
         stop-opacity="0"
         id="stop1232" />
    </linearGradient>
    <linearGradient
       id="D"
       x1="289.23001"
       y1="234.82001"
       x2="332.07999"
       y2="234.82001"
       gradientUnits="userSpaceOnUse"
       gradientTransform="translate(-201.78,-105.57)">
      <stop
         stop-color="#6B385F"
         id="stop1235" />
      <stop
         offset=".42"
         stop-color="#6F3B62"
         stop-opacity=".73"
         id="stop1237" />
      <stop
         offset=".52"
         stop-color="#764268"
         stop-opacity=".6"
         id="stop1239" />
      <stop
         offset=".69"
         stop-color="#8C567A"
         stop-opacity=".39"
         id="stop1241" />
      <stop
         offset=".91"
         stop-color="#B5799B"
         stop-opacity=".11"
         id="stop1243" />
      <stop
         offset="1"
         stop-color="#CC8DAE"
         stop-opacity="0"
         id="stop1245" />
    </linearGradient>
    <linearGradient
       id="E"
       x1="292.31"
       y1="223.64999"
       x2="325"
       y2="223.64999"
       gradientUnits="userSpaceOnUse"
       gradientTransform="translate(-201.78,-105.57)">
      <stop
         stop-color="#6B385F"
         id="stop1248" />
      <stop
         offset=".42"
         stop-color="#6F3B62"
         stop-opacity=".73"
         id="stop1250" />
      <stop
         offset=".52"
         stop-color="#764268"
         stop-opacity=".6"
         id="stop1252" />
      <stop
         offset=".69"
         stop-color="#8C567A"
         stop-opacity=".39"
         id="stop1254" />
      <stop
         offset=".91"
         stop-color="#B5799B"
         stop-opacity=".11"
         id="stop1256" />
      <stop
         offset="1"
         stop-color="#CC8DAE"
         stop-opacity="0"
         id="stop1258" />
    </linearGradient>
    <linearGradient
       id="F"
       x1="286.73999"
       y1="217.98"
       x2="330.5"
       y2="217.98"
       gradientUnits="userSpaceOnUse"
       gradientTransform="translate(-201.78,-105.57)">
      <stop
         stop-color="#BD8AAE"
         id="stop1261" />
      <stop
         offset="1"
         stop-color="#2484C6"
         stop-opacity="0"
         id="stop1263" />
    </linearGradient>
    <linearGradient
       id="G"
       x1="464.19"
       y1="359.97"
       x2="576.63"
       y2="359.97"
       gradientUnits="userSpaceOnUse"
       gradientTransform="translate(-201.78,-105.57)">
      <stop
         offset=".06"
         stop-color="#28A8E0"
         id="stop1266" />
      <stop
         offset="1"
         stop-color="#29ABE2"
         stop-opacity="0"
         id="stop1268" />
    </linearGradient>
    <linearGradient
       id="H"
       x1="543.91998"
       y1="324.35999"
       x2="543.94"
       y2="324.35999"
       gradientUnits="userSpaceOnUse"
       gradientTransform="translate(-201.78,-105.57)">
      <stop
         offset=".06"
         stop-color="#28A8E0"
         id="stop1271" />
      <stop
         offset="1"
         stop-color="#29ABE2"
         stop-opacity="0"
         id="stop1273" />
    </linearGradient>
    <linearGradient
       id="I"
       x1="557.98999"
       y1="327.98001"
       x2="560.14001"
       y2="327.98001"
       gradientUnits="userSpaceOnUse"
       gradientTransform="translate(-201.78,-105.57)">
      <stop
         offset=".06"
         stop-color="#28A8E0"
         id="stop1276" />
      <stop
         offset="1"
         stop-color="#29ABE2"
         stop-opacity="0"
         id="stop1278" />
    </linearGradient>
    <linearGradient
       id="J"
       x1="533.01001"
       y1="327.98001"
       x2="535.16998"
       y2="327.98001"
       gradientUnits="userSpaceOnUse"
       gradientTransform="translate(-201.78,-105.57)">
      <stop
         offset=".06"
         stop-color="#28A8E0"
         id="stop1281" />
      <stop
         offset="1"
         stop-color="#29ABE2"
         stop-opacity="0"
         id="stop1283" />
    </linearGradient>
    <linearGradient
       id="K"
       x1="539.71002"
       y1="331.07001"
       x2="553.5"
       y2="331.07001"
       gradientUnits="userSpaceOnUse"
       gradientTransform="translate(-201.78,-105.57)">
      <stop
         offset=".06"
         stop-color="#28A8E0"
         id="stop1286" />
      <stop
         offset="1"
         stop-color="#29ABE2"
         stop-opacity="0"
         id="stop1288" />
    </linearGradient>
    <linearGradient
       id="L"
       x1="558.03998"
       y1="336.04001"
       x2="563.16998"
       y2="336.04001"
       gradientUnits="userSpaceOnUse"
       gradientTransform="translate(-201.78,-105.57)">
      <stop
         offset=".06"
         stop-color="#28A8E0"
         id="stop1291" />
      <stop
         offset="1"
         stop-color="#29ABE2"
         stop-opacity="0"
         id="stop1293" />
    </linearGradient>
    <linearGradient
       id="M"
       x1="530.06"
       y1="336.04001"
       x2="535.21997"
       y2="336.04001"
       gradientUnits="userSpaceOnUse"
       gradientTransform="translate(-201.78,-105.57)">
      <stop
         offset=".06"
         stop-color="#28A8E0"
         id="stop1296" />
      <stop
         offset="1"
         stop-color="#29ABE2"
         stop-opacity="0"
         id="stop1298" />
    </linearGradient>
    <linearGradient
       id="N"
       x1="549.27002"
       y1="339.82999"
       x2="560.20001"
       y2="339.82999"
       gradientUnits="userSpaceOnUse"
       gradientTransform="translate(-201.78,-105.57)">
      <stop
         offset=".06"
         stop-color="#28A8E0"
         id="stop1301" />
      <stop
         offset="1"
         stop-color="#29ABE2"
         stop-opacity="0"
         id="stop1303" />
    </linearGradient>
    <linearGradient
       id="O"
       x1="533.07001"
       y1="340.70001"
       x2="549.28998"
       y2="340.70001"
       gradientUnits="userSpaceOnUse"
       gradientTransform="translate(-201.78,-105.57)">
      <stop
         offset=".06"
         stop-color="#28A8E0"
         id="stop1306" />
      <stop
         offset="1"
         stop-color="#29ABE2"
         stop-opacity="0"
         id="stop1308" />
    </linearGradient>
    <linearGradient
       id="P"
       x1="530.03998"
       y1="332.23999"
       x2="563.16998"
       y2="332.23999"
       gradientUnits="userSpaceOnUse"
       gradientTransform="translate(-201.78,-105.57)">
      <stop
         stop-color="#BD8AAE"
         id="stop1311" />
      <stop
         offset="1"
         stop-color="#2484C6"
         stop-opacity="0"
         id="stop1313" />
    </linearGradient>
    <linearGradient
       id="Q"
       x1="520.67999"
       y1="339.07001"
       x2="520.69"
       y2="339.07001"
       gradientUnits="userSpaceOnUse"
       gradientTransform="translate(-201.78,-105.57)">
      <stop
         offset=".06"
         stop-color="#28A8E0"
         id="stop1316" />
      <stop
         offset="1"
         stop-color="#29ABE2"
         stop-opacity="0"
         id="stop1318" />
    </linearGradient>
    <linearGradient
       id="R"
       x1="531.59998"
       y1="341.88"
       x2="533.27002"
       y2="341.88"
       gradientUnits="userSpaceOnUse"
       gradientTransform="translate(-201.78,-105.57)">
      <stop
         offset=".06"
         stop-color="#28A8E0"
         id="stop1321" />
      <stop
         offset="1"
         stop-color="#29ABE2"
         stop-opacity="0"
         id="stop1323" />
    </linearGradient>
    <linearGradient
       id="S"
       x1="512.21002"
       y1="341.88"
       x2="513.89001"
       y2="341.88"
       gradientUnits="userSpaceOnUse"
       gradientTransform="translate(-201.78,-105.57)">
      <stop
         offset=".06"
         stop-color="#28A8E0"
         id="stop1326" />
      <stop
         offset="1"
         stop-color="#29ABE2"
         stop-opacity="0"
         id="stop1328" />
    </linearGradient>
    <linearGradient
       id="T"
       x1="517.40997"
       y1="344.28"
       x2="528.10999"
       y2="344.28"
       gradientUnits="userSpaceOnUse"
       gradientTransform="translate(-201.78,-105.57)">
      <stop
         offset=".06"
         stop-color="#28A8E0"
         id="stop1331" />
      <stop
         offset="1"
         stop-color="#29ABE2"
         stop-opacity="0"
         id="stop1333" />
    </linearGradient>
    <linearGradient
       id="U"
       x1="531.64001"
       y1="348.14001"
       x2="535.62"
       y2="348.14001"
       gradientUnits="userSpaceOnUse"
       gradientTransform="translate(-201.78,-105.57)">
      <stop
         offset=".06"
         stop-color="#28A8E0"
         id="stop1336" />
      <stop
         offset="1"
         stop-color="#29ABE2"
         stop-opacity="0"
         id="stop1338" />
    </linearGradient>
    <linearGradient
       id="V"
       x1="509.92001"
       y1="348.14001"
       x2="513.92999"
       y2="348.14001"
       gradientUnits="userSpaceOnUse"
       gradientTransform="translate(-201.78,-105.57)">
      <stop
         offset=".06"
         stop-color="#28A8E0"
         id="stop1341" />
      <stop
         offset="1"
         stop-color="#29ABE2"
         stop-opacity="0"
         id="stop1343" />
    </linearGradient>
    <linearGradient
       id="W"
       x1="524.83002"
       y1="351.07999"
       x2="533.32001"
       y2="351.07999"
       gradientUnits="userSpaceOnUse"
       gradientTransform="translate(-201.78,-105.57)">
      <stop
         offset=".06"
         stop-color="#28A8E0"
         id="stop1346" />
      <stop
         offset="1"
         stop-color="#29ABE2"
         stop-opacity="0"
         id="stop1348" />
    </linearGradient>
    <linearGradient
       id="X"
       x1="512.26001"
       y1="351.75"
       x2="524.84998"
       y2="351.75"
       gradientUnits="userSpaceOnUse"
       gradientTransform="translate(-201.78,-105.57)">
      <stop
         offset=".06"
         stop-color="#28A8E0"
         id="stop1351" />
      <stop
         offset="1"
         stop-color="#29ABE2"
         stop-opacity="0"
         id="stop1353" />
    </linearGradient>
    <linearGradient
       id="Y"
       x1="509.91"
       y1="345.19"
       x2="535.62"
       y2="345.19"
       gradientUnits="userSpaceOnUse"
       gradientTransform="translate(-201.78,-105.57)">
      <stop
         stop-color="#BD8AAE"
         id="stop1356" />
      <stop
         offset="1"
         stop-color="#2484C6"
         stop-opacity="0"
         id="stop1358" />
    </linearGradient>
    <linearGradient
       id="Z"
       x1="498.95001"
       y1="353.22"
       x2="498.95999"
       y2="353.22"
       gradientUnits="userSpaceOnUse"
       gradientTransform="translate(-201.78,-105.57)">
      <stop
         offset=".06"
         stop-color="#28A8E0"
         id="stop1361" />
      <stop
         offset="1"
         stop-color="#29ABE2"
         stop-opacity="0"
         id="stop1363" />
    </linearGradient>
    <linearGradient
       id="aa"
       x1="509.87"
       y1="356.03"
       x2="511.54001"
       y2="356.03"
       gradientUnits="userSpaceOnUse"
       gradientTransform="translate(-201.78,-105.57)">
      <stop
         offset=".06"
         stop-color="#28A8E0"
         id="stop1366" />
      <stop
         offset="1"
         stop-color="#29ABE2"
         stop-opacity="0"
         id="stop1368" />
    </linearGradient>
    <linearGradient
       id="ab"
       x1="490.48001"
       y1="356.03"
       x2="492.16"
       y2="356.03"
       gradientUnits="userSpaceOnUse"
       gradientTransform="translate(-201.78,-105.57)">
      <stop
         offset=".06"
         stop-color="#28A8E0"
         id="stop1371" />
      <stop
         offset="1"
         stop-color="#29ABE2"
         stop-opacity="0"
         id="stop1373" />
    </linearGradient>
    <linearGradient
       id="ac"
       x1="495.67999"
       y1="358.42999"
       x2="506.38"
       y2="358.42999"
       gradientUnits="userSpaceOnUse"
       gradientTransform="translate(-201.78,-105.57)">
      <stop
         offset=".06"
         stop-color="#28A8E0"
         id="stop1376" />
      <stop
         offset="1"
         stop-color="#29ABE2"
         stop-opacity="0"
         id="stop1378" />
    </linearGradient>
    <linearGradient
       id="ad"
       x1="509.91"
       y1="362.29001"
       x2="513.89001"
       y2="362.29001"
       gradientUnits="userSpaceOnUse"
       gradientTransform="translate(-201.78,-105.57)">
      <stop
         offset=".06"
         stop-color="#28A8E0"
         id="stop1381" />
      <stop
         offset="1"
         stop-color="#29ABE2"
         stop-opacity="0"
         id="stop1383" />
    </linearGradient>
    <linearGradient
       id="ae"
       x1="488.19"
       y1="362.29001"
       x2="492.20001"
       y2="362.29001"
       gradientUnits="userSpaceOnUse"
       gradientTransform="translate(-201.78,-105.57)">
      <stop
         offset=".06"
         stop-color="#28A8E0"
         id="stop1386" />
      <stop
         offset="1"
         stop-color="#29ABE2"
         stop-opacity="0"
         id="stop1388" />
    </linearGradient>
    <linearGradient
       id="af"
       x1="503.10001"
       y1="365.23001"
       x2="511.59"
       y2="365.23001"
       gradientUnits="userSpaceOnUse"
       gradientTransform="translate(-201.78,-105.57)">
      <stop
         offset=".06"
         stop-color="#28A8E0"
         id="stop1391" />
      <stop
         offset="1"
         stop-color="#29ABE2"
         stop-opacity="0"
         id="stop1393" />
    </linearGradient>
    <linearGradient
       id="ag"
       x1="490.53"
       y1="365.89999"
       x2="503.12"
       y2="365.89999"
       gradientUnits="userSpaceOnUse"
       gradientTransform="translate(-201.78,-105.57)">
      <stop
         offset=".06"
         stop-color="#28A8E0"
         id="stop1396" />
      <stop
         offset="1"
         stop-color="#29ABE2"
         stop-opacity="0"
         id="stop1398" />
    </linearGradient>
    <linearGradient
       id="ah"
       x1="488.17999"
       y1="359.34"
       x2="513.89001"
       y2="359.34"
       gradientUnits="userSpaceOnUse"
       gradientTransform="translate(-201.78,-105.57)">
      <stop
         stop-color="#BD8AAE"
         id="stop1401" />
      <stop
         offset="1"
         stop-color="#2484C6"
         stop-opacity="0"
         id="stop1403" />
    </linearGradient>
    <linearGradient
       id="ai"
       x1="486.10001"
       y1="355.54001"
       x2="486.10999"
       y2="355.54001"
       gradientUnits="userSpaceOnUse"
       gradientTransform="translate(-201.78,-105.57)">
      <stop
         offset=".06"
         stop-color="#28A8E0"
         id="stop1406" />
      <stop
         offset="1"
         stop-color="#29ABE2"
         stop-opacity="0"
         id="stop1408" />
    </linearGradient>
    <linearGradient
       id="aj"
       x1="497.01001"
       y1="358.35001"
       x2="498.67999"
       y2="358.35001"
       gradientUnits="userSpaceOnUse"
       gradientTransform="translate(-201.78,-105.57)">
      <stop
         offset=".06"
         stop-color="#28A8E0"
         id="stop1411" />
      <stop
         offset="1"
         stop-color="#29ABE2"
         stop-opacity="0"
         id="stop1413" />
    </linearGradient>
    <linearGradient
       id="ak"
       x1="477.63"
       y1="358.35001"
       x2="479.31"
       y2="358.35001"
       gradientUnits="userSpaceOnUse"
       gradientTransform="translate(-201.78,-105.57)">
      <stop
         offset=".06"
         stop-color="#28A8E0"
         id="stop1416" />
      <stop
         offset="1"
         stop-color="#29ABE2"
         stop-opacity="0"
         id="stop1418" />
    </linearGradient>
    <linearGradient
       id="al"
       x1="482.82999"
       y1="360.75"
       x2="493.53"
       y2="360.75"
       gradientUnits="userSpaceOnUse"
       gradientTransform="translate(-201.78,-105.57)">
      <stop
         offset=".06"
         stop-color="#28A8E0"
         id="stop1421" />
      <stop
         offset="1"
         stop-color="#29ABE2"
         stop-opacity="0"
         id="stop1423" />
    </linearGradient>
    <linearGradient
       id="am"
       x1="497.04999"
       y1="364.60999"
       x2="501.04001"
       y2="364.60999"
       gradientUnits="userSpaceOnUse"
       gradientTransform="translate(-201.78,-105.57)">
      <stop
         offset=".06"
         stop-color="#28A8E0"
         id="stop1426" />
      <stop
         offset="1"
         stop-color="#29ABE2"
         stop-opacity="0"
         id="stop1428" />
    </linearGradient>
    <linearGradient
       id="an"
       x1="475.34"
       y1="364.60999"
       x2="479.34"
       y2="364.60999"
       gradientUnits="userSpaceOnUse"
       gradientTransform="translate(-201.78,-105.57)">
      <stop
         offset=".06"
         stop-color="#28A8E0"
         id="stop1431" />
      <stop
         offset="1"
         stop-color="#29ABE2"
         stop-opacity="0"
         id="stop1433" />
    </linearGradient>
    <linearGradient
       id="ao"
       x1="490.25"
       y1="367.54999"
       x2="498.73001"
       y2="367.54999"
       gradientUnits="userSpaceOnUse"
       gradientTransform="translate(-201.78,-105.57)">
      <stop
         offset=".06"
         stop-color="#28A8E0"
         id="stop1436" />
      <stop
         offset="1"
         stop-color="#29ABE2"
         stop-opacity="0"
         id="stop1438" />
    </linearGradient>
    <linearGradient
       id="ap"
       x1="477.67001"
       y1="368.22"
       x2="490.26001"
       y2="368.22"
       gradientUnits="userSpaceOnUse"
       gradientTransform="translate(-201.78,-105.57)">
      <stop
         offset=".06"
         stop-color="#28A8E0"
         id="stop1441" />
      <stop
         offset="1"
         stop-color="#29ABE2"
         stop-opacity="0"
         id="stop1443" />
    </linearGradient>
    <linearGradient
       id="aq"
       x1="475.32999"
       y1="361.66"
       x2="501.04001"
       y2="361.66"
       gradientUnits="userSpaceOnUse"
       gradientTransform="translate(-201.78,-105.57)">
      <stop
         stop-color="#BD8AAE"
         id="stop1446" />
      <stop
         offset="1"
         stop-color="#2484C6"
         stop-opacity="0"
         id="stop1448" />
    </linearGradient>
    <linearGradient
       id="ar"
       x1="548.58002"
       y1="286.98999"
       x2="580.91998"
       y2="286.98999"
       gradientUnits="userSpaceOnUse"
       gradientTransform="translate(-201.78,-105.57)">
      <stop
         offset=".06"
         stop-color="#28A8E0"
         id="stop1451" />
      <stop
         offset="1"
         stop-color="#29ABE2"
         stop-opacity="0"
         id="stop1453" />
    </linearGradient>
    <linearGradient
       id="as"
       x1="572.90997"
       y1="257.45001"
       x2="588.92999"
       y2="257.45001"
       gradientUnits="userSpaceOnUse"
       gradientTransform="translate(-201.78,-105.57)">
      <stop
         offset=".06"
         stop-color="#28A8E0"
         id="stop1456" />
      <stop
         offset="1"
         stop-color="#29ABE2"
         stop-opacity="0"
         id="stop1458" />
    </linearGradient>
    <radialGradient
       id="h"
       cx="0"
       cy="0"
       r="1"
       gradientUnits="userSpaceOnUse"
       gradientTransform="matrix(112.09727,-111.66767,326.95255,328.21037,238.3498,160.62901)">
      <stop
         stop-color="#00E4FE"
         id="stop1461" />
      <stop
         offset=".39"
         stop-color="#009FFD"
         id="stop1463" />
      <stop
         offset="1"
         stop-color="#BE17FB"
         id="stop1465" />
    </radialGradient>
    <radialGradient
       id="B"
       cx="0"
       cy="0"
       r="1"
       gradientUnits="userSpaceOnUse"
       gradientTransform="matrix(40.37196,-58.41074,159.98399,110.5767,93.24,151.9)">
      <stop
         stop-color="#00E4FE"
         id="stop1468" />
      <stop
         offset=".39"
         stop-color="#009FFD"
         id="stop1470" />
      <stop
         offset="1"
         stop-color="#BE17FB"
         id="stop1472" />
    </radialGradient>
  </defs>
</svg>
